<?xml version="1.0" standalone="no"?>
<!DOCTYPE svg PUBLIC "-//W3C//DTD SVG 1.1//EN" "http://www.w3.org/Graphics/SVG/1.1/DTD/svg11.dtd" >
<svg xmlns="http://www.w3.org/2000/svg">
<metadata></metadata>
<defs>
<font id="american_typewriter_betvRg" horiz-adv-x="1570" >
<font-face units-per-em="2048" ascent="1638" descent="-410" />
<missing-glyph horiz-adv-x="686" />
<glyph unicode="&#xfb01;" horiz-adv-x="1519" d="M45 66q0 31 20.5 48t57.5 17h108q41 0 41 41v694q0 41 -41 41h-102q-36 0 -57 19.5t-21 50.5t21 50.5t57 19.5h102q41 0 41 43v22q0 156 85 244t266 88q124 0 205 -51t81 -148q0 -44 -24.5 -75t-69.5 -31q-46 0 -71 21t-25 57q0 46 37 67q-49 41 -140 41 q-107 0 -153.5 -57.5t-46.5 -149.5v-28q0 -43 41 -43h157q36 0 57 -19.5t21 -50.5t-21 -50.5t-57 -19.5h-157q-41 0 -41 -41v-694q0 -41 41 -41h155q37 0 57.5 -17t20.5 -48t-20.5 -48.5t-57.5 -17.5h-489q-37 0 -57.5 17.5t-20.5 48.5zM905 66q0 31 20.5 48t57.5 17h113 q41 0 41 41v702q0 41 -41 41h-113q-37 0 -57.5 17.5t-20.5 48.5t20.5 48.5t57.5 17.5h221q36 0 57 -19.5t21 -50.5v-805q0 -41 41 -41h131q37 0 57.5 -17t20.5 -48t-20.5 -48.5t-57.5 -17.5h-471q-37 0 -57.5 17.5t-20.5 48.5zM1065 1286q0 49 34.5 83t82.5 34q50 0 84 -34 t34 -83q0 -50 -34.5 -84.5t-83.5 -34.5q-48 0 -82.5 35t-34.5 84z" />
<glyph unicode="&#xfb02;" d="M45 66q0 31 20.5 48t57.5 17h108q41 0 41 41v694q0 41 -41 41h-102q-36 0 -57 19.5t-21 50.5t21 50.5t57 19.5h102q41 0 41 43v22q0 156 85 244t266 88q124 0 205 -51t81 -148q0 -44 -24.5 -75t-69.5 -31q-46 0 -71 21t-25 57q0 46 37 67q-49 41 -140 41 q-107 0 -153.5 -57.5t-46.5 -149.5v-28q0 -43 41 -43h157q36 0 57 -19.5t21 -50.5t-21 -50.5t-57 -19.5h-157q-41 0 -41 -41v-694q0 -41 41 -41h155q37 0 57.5 -17t20.5 -48t-20.5 -48.5t-57.5 -17.5h-489q-37 0 -57.5 17.5t-20.5 48.5zM905 1337q0 31 20.5 48.5t57.5 17.5 h236q36 0 56.5 -19.5t20.5 -50.5v-1161q0 -41 41 -41h154q37 0 57.5 -17t20.5 -48t-20.5 -48.5t-57.5 -17.5h-490q-37 0 -57 17.5t-20 48.5t20 48t57 17h111q41 0 41 41v1059q0 41 -41 41h-129q-37 0 -57.5 17t-20.5 48z" />
<glyph horiz-adv-x="0" />
<glyph horiz-adv-x="682" />
<glyph unicode=" "  horiz-adv-x="686" />
<glyph unicode="&#x09;" horiz-adv-x="686" />
<glyph unicode="&#xa0;" horiz-adv-x="686" />
<glyph unicode="!" horiz-adv-x="741" d="M256 117q0 54 39 92.5t94 38.5q54 0 92.5 -38.5t38.5 -92.5q0 -55 -38.5 -94t-92.5 -39q-55 0 -94 39t-39 94zM315 391v983q0 28 25 49t53 21q30 0 54 -20.5t24 -49.5v-983q0 -29 -24 -49t-54 -20q-28 0 -53 20.5t-25 48.5z" />
<glyph unicode="&#x22;" horiz-adv-x="911" d="M240 1389q0 24 17 39.5t42 15.5q23 0 41 -15.5t18 -39.5v-508q-1 -24 -19 -41t-40 -17q-25 0 -41 16.5t-16 41.5zM588 1389q0 24 17 39.5t42 15.5q23 0 41.5 -15.5t18.5 -39.5v-508q-1 -24 -19.5 -41t-40.5 -17q-25 0 -41 16.5t-16 41.5z" />
<glyph unicode="#" horiz-adv-x="1357" d="M4 455q0 -23 15 -38.5t42 -15.5h242l-82 -327q-2 -6 -2 -17q0 -24 16.5 -40.5t40.5 -16.5q28 0 53.5 21t32.5 53l82 327h318l-82 -327q-2 -6 -2 -17q0 -24 16.5 -40.5t40.5 -16.5q28 0 53.5 21t32.5 53l82 327h248q37 0 65.5 26t28.5 60q0 25 -14.5 40.5t-42.5 15.5h-250 l80 317h248q37 0 65.5 26t28.5 60q0 24 -16 39.5t-44 15.5h-247l82 328q2 8 2 21q0 24 -15 38.5t-39 14.5q-29 0 -55 -20.5t-35 -53.5l-82 -328h-317l82 328q2 8 2 21q0 24 -14.5 38.5t-38.5 14.5q-29 0 -55 -20.5t-35 -53.5l-82 -328h-242q-36 0 -64 -27t-28 -61 q0 -23 15 -38t42 -15h242l-80 -317h-240q-37 0 -65.5 -27t-28.5 -61zM479 543l80 317h318l-80 -317h-318z" />
<glyph unicode="$" horiz-adv-x="1398" d="M147 365q0 74 41.5 131t108.5 57q52 0 82.5 -27t30.5 -77q0 -45 -38 -73t-85 -26v-8q0 -101 96 -163t268 -73v560q-195 36 -264 73q-85 44 -128.5 121t-43.5 170q0 103 34 181t95.5 125.5t137.5 72.5t169 31v166q0 29 21 48t51 19q27 0 49.5 -19.5t22.5 -47.5v-164 q127 -7 221 -45q104 -45 154.5 -122.5t50.5 -170.5q0 -67 -32 -109.5t-89 -42.5q-44 0 -73.5 28.5t-29.5 72.5q0 30 15.5 58t48.5 38q-28 67 -91.5 102t-174.5 39v-491q222 -43 323 -105q150 -97 150 -299q0 -83 -26 -152.5t-70 -118.5t-105 -84.5t-129 -54t-143 -24.5v-188 q0 -28 -22.5 -48t-49.5 -20q-30 0 -51 19.5t-21 48.5v186q-80 4 -149 18t-136 44.5t-114 74.5t-76 113t-29 156zM373 1053q0 -58 14 -92.5t49 -63.5q50 -40 215 -72v461q-56 -6 -102.5 -21t-88 -41t-64.5 -69.5t-23 -101.5zM795 106q75 4 124 22t97 50q104 71 104 207 q0 40 -10.5 73.5t-25 56.5t-42 42.5t-50.5 31.5t-62.5 23t-65 17t-69.5 14v-537z" />
<glyph unicode="%" horiz-adv-x="1837" d="M78 989q0 85 17.5 161t55.5 144.5t108.5 109t166.5 40.5q77 0 138 -27.5t99 -71.5t63.5 -105t35.5 -122.5t10 -128.5q0 -86 -21 -162.5t-61.5 -138.5t-108.5 -98.5t-155 -36.5t-155 36.5t-109.5 98.5t-62.5 138.5t-21 162.5zM182 987q0 -56 13.5 -110.5t40.5 -105 t76.5 -81.5t113.5 -31t113 31t76 81.5t40 105t13 110.5q0 48 -6 93t-22.5 93.5t-42.5 83.5t-70 57.5t-101 22.5q-71 0 -121.5 -33t-75.5 -88t-36 -111t-11 -118zM397 -25q0 10 13 33l890 1387q3 5 8 12.5l7 10.5t5.5 8t5.5 6.5t5.5 4.5t6 3.5t7.5 2t9.5 1.5h11.5h39 q31 0 31 -17q0 -9 -13 -32l-891 -1387q-4 -5 -10 -15t-8 -13t-6.5 -8.5t-7 -6.5t-8 -3t-11 -2.5t-14.5 -0.5h-39q-31 0 -31 16zM1049 395q0 85 17.5 161t55.5 144.5t108.5 109t166.5 40.5q77 0 138 -27.5t99 -71.5t63.5 -105t35.5 -122.5t10 -128.5q0 -86 -21 -162.5 t-61.5 -138.5t-108.5 -98.5t-155 -36.5t-155 36.5t-109.5 98.5t-62.5 138.5t-21 162.5zM1153 393q0 -56 13.5 -110.5t40.5 -104.5t76.5 -81t113.5 -31t113 31t75.5 81t39.5 104.5t13 110.5q0 62 -10.5 118t-35 111t-74.5 88t-121 33t-121.5 -33t-75.5 -88t-36 -111t-11 -118 z" />
<glyph unicode="&#x26;" horiz-adv-x="1855" d="M174 375q0 71 17.5 131.5t46 106t76 87.5t96 73t116.5 67q-10 16 -31.5 62.5t-46 130t-24.5 147.5q0 55 26.5 107t69.5 89q82 68 219 68t221 -67t84 -203q0 -67 -25 -129.5t-68.5 -113t-92.5 -90t-108 -73.5l235 -350l14 -19l33 72l64 168q29 78 54 133t62.5 111.5 t79 90.5t99.5 55.5t129 21.5q125 0 206.5 -70t81.5 -193q0 -108 -73 -183t-181 -75q-74 0 -128 33.5t-54 102.5q0 45 22 73.5t66 28.5q27 0 49.5 -18.5t22.5 -44.5q0 -21 -8 -37q20 -4 32 -4q43 0 76 35t33 77q0 64 -45.5 100.5t-112.5 36.5q-132 0 -196 -153l-119 -287 q-55 -139 -92 -201q50 -56 91 -88.5t96.5 -51.5t127.5 -19h113q35 0 59.5 -18.5t24.5 -51.5q0 -34 -23 -53t-59 -19h-148q-79 0 -124 9t-105 43q-70 43 -145 122q-72 -92 -177 -139t-225 -47q-187 0 -309.5 115.5t-122.5 300.5zM340 381q0 -122 82 -197t207 -75 q85 0 158 42.5t120 114.5l-100 137q-43 58 -115 171.5t-86 134.5q-118 -40 -192 -125.5t-74 -202.5zM582 1163q0 -105 88 -268q91 41 158 112.5t67 157.5q0 61 -41.5 100.5t-103.5 39.5q-78 0 -123 -35.5t-45 -106.5z" />
<glyph unicode="'" horiz-adv-x="311" d="M117 1389q0 24 17 39.5t42 15.5q23 0 41.5 -15.5t18.5 -39.5v-508q-1 -24 -19.5 -41t-40.5 -17q-25 0 -41 16.5t-16 41.5z" />
<glyph unicode="(" horiz-adv-x="905" d="M117 561q0 158 62.5 307t172.5 265q112 115 256 190q47 24 122.5 53t109.5 29q11 0 20.5 -8.5t9.5 -20.5q0 -26 -53 -47q-102 -40 -206.5 -119.5t-174.5 -167.5q-81 -100 -123.5 -225.5t-42.5 -255.5q0 -250 146 -452q65 -87 175.5 -175.5t209.5 -132.5q3 -1 14 -5.5 t18.5 -8t17 -9t14.5 -12t5 -14.5q0 -11 -14.5 -18.5t-28.5 -7.5q-47 0 -147.5 44t-157.5 80q-186 119 -295.5 307t-109.5 404z" />
<glyph unicode=")" horiz-adv-x="899" d="M35 -248q0 6 2 11t6.5 9.5t8.5 7.5t11 7t11 5.5t11.5 4.5t8.5 4q97 42 209 132t176 176q146 202 146 452q0 130 -42.5 255.5t-123.5 225.5q-69 85 -173.5 162.5t-207.5 124.5q-43 19 -43 47q0 29 20 29q33 0 106 -28t126 -54q146 -76 254 -190q112 -117 174.5 -265.5 t62.5 -306.5q0 -216 -109.5 -404t-295.5 -307q-57 -36 -157.5 -80t-147.5 -44q-13 0 -23 7.5t-10 18.5z" />
<glyph unicode="*" horiz-adv-x="907" d="M122.5 883.5q7.5 32.5 37.5 52.5l196 102l-196 103q-30 20 -37.5 52t10.5 58t49.5 32.5t63.5 -13.5l172 -142l-23 224q0 36 23 59t55 23t55 -23t23 -59l-23 -222l172 140q32 20 63.5 13.5t49.5 -32.5t10.5 -58t-37.5 -52l-196 -103l196 -102q30 -20 37.5 -52.5 t-10.5 -58.5t-49.5 -32t-63.5 14l-172 139l23 -221q0 -36 -23 -59t-55 -23t-55 23t-23 59l23 221l-172 -139q-32 -20 -63.5 -14t-49.5 32t-10.5 58.5z" />
<glyph unicode="+" horiz-adv-x="1288" d="M94 555q0 32 23 55t59 23h381v377q0 36 23 59t55 23t55 -23t23 -59v-377h381q36 0 59 -23t23 -55t-23 -55t-59 -23h-381v-383q0 -36 -23 -59t-55 -23t-55 23t-23 59v383h-381q-36 0 -59 23t-23 55z" />
<glyph unicode="," horiz-adv-x="442" d="M82 80q0 63 42.5 102t106.5 39q78 0 122 -64t44 -145q0 -67 -25 -143.5t-65 -138.5q-1 -1 -14 -20t-19.5 -28t-21 -27t-25 -27t-24 -17t-25.5 -8q-15 0 -28 13t-13 28q0 13 33 61t66.5 109.5t33.5 105.5q0 15 -7.5 23t-14.5 9t-21 1h-8q-137 0 -137 127z" />
<glyph unicode="-" horiz-adv-x="589" d="M55 553q0 32 23 55t59 23h352q36 0 59 -23t23 -55t-23 -55t-59 -23h-352q-36 0 -59 23t-23 55z" />
<glyph unicode="." horiz-adv-x="385" d="M80 109q0 54 39 92.5t94 38.5q54 0 92.5 -38.5t38.5 -92.5q0 -55 -38.5 -94.5t-92.5 -39.5q-55 0 -94 39t-39 95z" />
<glyph unicode="/" horiz-adv-x="1015" d="M139 -139q0 10 11 35l616 1597q13 33 24 41t41 8h60q29 0 29 -14q0 -9 -11 -35l-616 -1597q-13 -33 -24.5 -41.5t-41.5 -8.5h-59q-29 0 -29 15z" />
<glyph unicode="0" horiz-adv-x="1398" d="M125 686q0 78 8.5 153t28 151t50 142t76.5 124t104.5 99.5t137.5 65t172 23.5q129 0 231 -45.5t165.5 -119.5t105.5 -175t59 -203.5t17 -214.5q0 -114 -21.5 -219t-67.5 -198t-112.5 -161.5t-163.5 -108.5t-213 -40t-212.5 40t-163 108.5t-112.5 161.5t-67.5 198 t-21.5 219zM279 678q0 -76 13.5 -152t45.5 -152.5t79 -134.5t120.5 -94t164.5 -36q76 0 140.5 25t109.5 69t79.5 99.5t54.5 120.5t30 128.5t10 126.5q0 71 -7.5 137.5t-24.5 138.5t-49.5 131t-77.5 107t-113 75t-152 27q-100 0 -177 -39.5t-122.5 -101t-74.5 -146t-39 -164 t-10 -165.5z" />
<glyph unicode="1" horiz-adv-x="1146" d="M205 66q0 31 20.5 48t57.5 17h188q41 0 41 41v977q0 35 -14 35q-9 0 -17 -8l-116 -91q-34 -24 -60 -24q-29 0 -47 21t-18 51q0 34 26 51q99 71 148 114t114 117q23 29 66 29q29 0 51.5 -18t22.5 -54v-1200q0 -41 41 -41h163q37 0 57.5 -17t20.5 -48t-20.5 -48.5 t-57.5 -17.5h-589q-37 0 -57.5 17.5t-20.5 48.5z" />
<glyph unicode="2" horiz-adv-x="1398" d="M131 184q0 91 30.5 168.5t79.5 133t120.5 102.5t141 77.5t154.5 57.5l105 33q299 95 299 274q0 73 -30.5 126.5t-84 83t-114.5 43t-132 13.5q-123 0 -232.5 -63t-141.5 -170q27 16 63 16q86 0 86 -90q0 -56 -38 -91.5t-99 -35.5q-76 0 -118 49t-42 125q0 92 48.5 171 t129.5 136q80 54 161.5 77.5t193.5 23.5q78 0 149 -13.5t136 -45t112.5 -78t75.5 -116.5t28 -157q0 -79 -34.5 -155t-100.5 -131q-40 -34 -97.5 -63t-99 -44.5t-110.5 -38.5q-82 -28 -144 -52t-125 -55t-103.5 -62t-68 -69.5t-30.5 -80.5l4 -4q23 28 75.5 48.5t110.5 20.5 q71 0 135 -24.5t110.5 -59.5t90 -70.5t92 -60t97.5 -24.5q64 0 99.5 47.5t35.5 117.5q0 22 -10 39q-24 -34 -70 -34q-41 0 -67.5 24t-26.5 66q0 52 36.5 82t90.5 30q87 0 130.5 -59t43.5 -152q0 -144 -67.5 -227.5t-209.5 -83.5q-64 0 -122.5 24.5t-105 60t-92.5 71 t-102.5 60t-117.5 24.5q-57 0 -99.5 -21.5t-52.5 -68.5q9 6 23 6q31 0 48 -17.5t17 -42.5q0 -42 -29 -69t-71 -27q-44 0 -77 20t-51.5 53.5t-27 71.5t-8.5 80z" />
<glyph unicode="3" horiz-adv-x="1355" d="M137 381q0 95 42.5 156t131.5 61q54 0 87.5 -33.5t33.5 -87.5q0 -50 -30.5 -75t-79.5 -25q-19 0 -39 8q-4 -59 28 -113t76 -86q111 -82 283 -82q111 0 204 41.5t151 125.5t58 196q0 123 -84 201q-34 33 -92 51t-121 18q-58 0 -111.5 -6t-86 -12t-39.5 -6q-23 0 -36 16.5 t-13 40.5q0 10 6 21.5t13 19t18 18.5t14 15l416 413h-594q-41 0 -41 -40v-166q0 -37 -17.5 -57.5t-48.5 -20.5t-48 20.5t-17 57.5v274q0 36 19 57t50 21h863q77 0 77 -57q0 -50 -69 -119l-350 -355h34q187 0 297.5 -107.5t110.5 -301.5q0 -239 -162 -373q-80 -67 -188.5 -99 t-223.5 -32q-74 0 -146.5 15t-141 48.5t-120 81.5t-83 119.5t-31.5 157.5z" />
<glyph unicode="4" horiz-adv-x="1390" d="M125 498q0 -23 12.5 -42t34.5 -26q25 -8 80 -8h627v-250q0 -41 -41 -41h-211q-37 0 -57.5 -17t-20.5 -48t20.5 -48.5t57.5 -17.5h610q37 0 57.5 17.5t20.5 48.5t-20.5 48t-57.5 17h-166q-41 0 -41 41v250h219q37 0 57.5 19.5t20.5 52.5t-20.5 53t-57.5 20h-219v731 q0 146 -119 146q-106 0 -192 -119l-551 -735q-43 -55 -43 -92zM334 567l540 723h5v-723h-545z" />
<glyph unicode="5" horiz-adv-x="1363" d="M170 330q0 71 37.5 122.5t105.5 51.5q55 0 88 -29.5t33 -77.5q0 -39 -22.5 -68t-57.5 -30q-20 0 -26 2q0 -56 55 -104q48 -43 135.5 -68t161.5 -25q176 0 295 101t119 266q0 157 -94.5 248.5t-235.5 91.5q-55 0 -109 -7t-121 -31.5t-110 -65.5q-46 -44 -73.5 -62 t-59.5 -18q-76 0 -76 98q0 14 43 600q3 36 25 57t53 21h692q38 0 63 -20.5t29 -57.5l13 -100q14 -112 14 -123q0 -58 -66 -58q-31 0 -48 20.5t-17 57.5q0 69 -30.5 102t-80.5 33h-430q-49 0 -63 -9.5t-17 -43.5l-28 -375q130 127 378 127q217 0 356.5 -125t139.5 -339 q0 -256 -155.5 -394.5t-417.5 -138.5q-88 0 -179.5 21.5t-160.5 62.5q-158 98 -158 287z" />
<glyph unicode="6" horiz-adv-x="1376" d="M141 694q0 73 8.5 144t28.5 146t50 141t77.5 125.5t107 102t141 67t177.5 24.5q71 0 142 -16t138.5 -49t109.5 -94t42 -142q0 -69 -34.5 -107.5t-92.5 -38.5q-48 0 -75 27.5t-27 65.5q0 69 65 86q-25 53 -100 87.5t-172 34.5q-69 0 -130 -24t-106.5 -66t-81.5 -97 t-58.5 -117.5t-34 -126.5t-11.5 -126q0 -18 2 -26l4 -4q58 118 173.5 173.5t258.5 55.5q142 0 255.5 -57t180 -166t66.5 -250q0 -237 -146 -372.5t-392 -135.5q-271 0 -416 178q-150 180 -150 557zM346 440q0 -126 70 -211q48 -59 124 -92t167 -33q172 0 279.5 100 t107.5 257q0 161 -106 247.5t-269 86.5q-97 0 -180.5 -40t-138 -122.5t-54.5 -192.5z" />
<glyph unicode="7" horiz-adv-x="1251" d="M135 934v432q0 36 19.5 57t50.5 21t50 -21t19 -57q0 -32 -8 -51l4 -4q76 125 183 125q68 0 118.5 -23t130.5 -86q44 -34 73.5 -54.5t78.5 -43.5t86 -23q20 0 47.5 8.5t51.5 26.5t28 39q-12 -4 -23 -4q-30 0 -52.5 22.5t-22.5 55.5q0 38 25.5 64t62.5 26q143 0 143 -197 q0 -130 -80 -254q-35 -53 -92 -107.5t-107 -93.5t-106 -95t-90 -113q-64 -106 -81 -223.5t-17 -313.5q0 -88 -82 -88q-40 0 -64 22.5t-24 65.5q0 220 29 371t102 260q44 66 89.5 109.5t122.5 100.5t113 87q46 38 92.5 93.5t53.5 96.5l-4 4q-30 -33 -73.5 -54t-86.5 -21 q-69 0 -127.5 20t-98 48.5t-73.5 57t-70 48.5t-71 20q-70 0 -125.5 -45t-55.5 -98v-211q0 -36 -19 -57t-50 -21t-50.5 21t-19.5 57z" />
<glyph unicode="8" horiz-adv-x="1339" d="M145 414q0 294 263 383q-183 91 -183 270q0 94 39.5 168t105 118.5t144.5 67.5t164 23q84 0 162 -21.5t143 -63t104 -112.5t39 -162q0 -108 -49.5 -176t-152.5 -112q150 -45 215 -140.5t65 -242.5q0 -112 -44.5 -201t-120.5 -143t-171 -82.5t-202 -28.5q-103 0 -195 28.5 t-165.5 82.5t-117 143t-43.5 201zM297 424q0 -101 57 -175.5t142 -109.5t182 -35t180.5 35t139 109.5t55.5 175.5q0 75 -32.5 133t-86.5 92.5t-119.5 52t-136.5 17.5q-72 0 -138 -17.5t-121.5 -52t-88.5 -92.5t-33 -133zM377 1073q0 -66 46 -112.5t110.5 -66.5t136.5 -20 q53 0 105 12.5t98 36.5t74 67t28 97q0 69 -48 119t-113.5 71t-135.5 21t-136.5 -22.5t-115.5 -76t-49 -126.5z" />
<glyph unicode="9" horiz-adv-x="1374" d="M162 934q0 224 143 367t367 143q104 0 190 -29.5t145.5 -81.5t103 -118t68.5 -144.5t36.5 -155t11.5 -155.5q0 -124 -20.5 -237t-67.5 -217t-117.5 -180t-178 -121.5t-241.5 -45.5q-70 0 -138 18.5t-127.5 54.5t-96.5 97.5t-37 138.5q0 56 33.5 97t93.5 41 q49 0 75.5 -26.5t26.5 -62.5q0 -40 -25 -65.5t-63 -28.5q80 -127 268 -127q88 0 161 33t122 87.5t83 128t50.5 151t18.5 159.5l-5 4q-39 -81 -146.5 -135.5t-268.5 -54.5q-208 0 -336.5 128t-128.5 337zM313 944q0 -150 91.5 -240t254.5 -90q73 0 136.5 21t115 63t81.5 112 t30 161q0 147 -100.5 238t-253.5 91q-167 0 -261 -101t-94 -255z" />
<glyph unicode=":" horiz-adv-x="385" d="M80 109q0 54 39 92.5t94 38.5q54 0 92.5 -38.5t38.5 -92.5q0 -55 -38.5 -94.5t-92.5 -39.5q-55 0 -94 39t-39 95zM80 799q0 55 39 94t94 39q54 0 92.5 -39t38.5 -94t-38.5 -93t-92.5 -38q-56 0 -94.5 38t-38.5 93z" />
<glyph unicode=";" horiz-adv-x="442" d="M82 80q0 63 42.5 102t106.5 39q78 0 122 -64t44 -145q0 -67 -25 -143.5t-65 -138.5q-1 -1 -14 -20t-19.5 -28t-21 -27t-25 -27t-24 -17t-25.5 -8q-15 0 -28 13t-13 28q0 13 33 61t66.5 109.5t33.5 105.5q0 16 -7 23.5t-15 8.5t-25 1h-4q-137 0 -137 127zM92 799 q0 54 39 92.5t94 38.5q54 0 92.5 -38t38.5 -93t-38.5 -94t-92.5 -39q-55 0 -94 39t-39 94z" />
<glyph unicode="&#x3c;" horiz-adv-x="1370" d="M119 553q0 23 12 41.5t25 23.5l997 455q15 6 33 6q20 0 34.5 -16t14.5 -39q0 -42 -21 -65t-61 -41l-803 -365l803 -363q40 -18 61 -41t21 -65q0 -25 -16.5 -41t-42.5 -16q-15 0 -23 4l-997 456q-18 8 -27.5 28t-9.5 38z" />
<glyph unicode="=" horiz-adv-x="1402" d="M121 352q0 32 23 55t59 23h979q36 0 59 -23t23 -55t-23 -55t-59 -23h-979q-36 0 -59 23t-23 55zM121 754q0 32 23 54.5t59 22.5h979q36 0 59 -22.5t23 -54.5t-23 -55t-59 -23h-979q-36 0 -59 23t-23 55z" />
<glyph unicode="&#x3e;" horiz-adv-x="1368" d="M121 82q0 42 21 65t61 41l803 363l-803 364q-39 18 -60.5 41.5t-21.5 65.5q0 23 14.5 39t34.5 16q18 0 33 -6l997 -455q13 -5 25 -23.5t12 -41.5q0 -18 -9.5 -38t-27.5 -28l-997 -456q-8 -4 -23 -4q-26 0 -42.5 16t-16.5 41z" />
<glyph unicode="?" horiz-adv-x="1249" d="M94 1053q0 50 9.5 94.5t31.5 90t61 81.5t94 65t135.5 44.5t180.5 15.5q85 0 161.5 -13.5t147 -44.5t122 -77.5t82 -118t30.5 -160.5q0 -75 -24.5 -135.5t-71.5 -105.5t-99 -76t-125 -62q-44 -19 -66 -29t-55.5 -31t-49.5 -41.5t-29 -53t-13 -72.5q0 -20 -1 -32.5 t-5 -28.5t-11.5 -25.5t-22 -16t-35.5 -6.5q-92 0 -92 103q0 54 15.5 101t39.5 81t63 67t75.5 55.5t88.5 49.5q11 6 44 23t46.5 24t41.5 24.5t40.5 29t31.5 31.5t27.5 38.5t15.5 44t7 53.5q0 66 -33 116.5t-87 79t-114.5 42.5t-123.5 14q-65 0 -125 -10.5t-119 -35t-95 -73.5 t-36 -116q0 -89 53 -107l-2 19q0 32 25 50.5t59 18.5q40 0 64 -27.5t24 -66.5q0 -65 -52.5 -102t-119.5 -37q-100 0 -154.5 72.5t-54.5 175.5zM406 92q0 54 39 92.5t94 38.5q54 0 92.5 -38.5t38.5 -92.5q0 -55 -38.5 -94t-92.5 -39q-55 0 -94 38.5t-39 94.5z" />
<glyph unicode="@" horiz-adv-x="1646" d="M115 418q0 170 68.5 326t183 269.5t272.5 181t330 67.5q164 0 296.5 -66t210.5 -191.5t78 -289.5q0 -206 -129 -391q-65 -90 -152 -150.5t-183 -60.5q-53 0 -95.5 28t-42.5 78q0 13 6 25l-4 4q-33 -60 -112.5 -96.5t-155.5 -36.5q-120 0 -186 77t-66 197q0 129 69 250 t187 197.5t250 76.5q80 0 127 -18q36 -12 51 -12q19 0 46 13t44 13q37 0 37 -28q0 -6 -4 -23.5t-4 -19.5l-135 -490q-12 -36 -12 -67q0 -45 45 -45q41 0 90 39t78 81q45 71 70.5 162t25.5 176q0 196 -124.5 324.5t-322.5 128.5q-111 0 -216 -39.5t-187 -109t-144 -159.5 t-95.5 -196t-33.5 -213q0 -148 65 -268.5t184 -191t268 -70.5q213 0 426 151q1 0 14.5 9t21 13.5t19.5 9.5t20 5q20 0 32.5 -11.5t12.5 -31.5q0 -55 -143 -145q-202 -123 -424 -123q-183 0 -333.5 82.5t-237 230t-86.5 328.5zM594 397q0 -69 35 -110t104 -41q60 0 108.5 28 t80.5 77.5t52 97.5t36 108l57 203q-69 37 -137 37q-98 0 -177 -62t-119 -152.5t-40 -185.5z" />
<glyph unicode="A" d="M-14 66q0 31 20 48t57 17h84q33 0 49.5 10t26.5 39l414 1153q22 61 50 86t87 25t87 -25t50 -86l381 -1091q24 -66 48 -88.5t65 -22.5h106q37 0 57.5 -17t20.5 -48t-20.5 -48.5t-57.5 -17.5h-532q-37 0 -57.5 17.5t-20.5 48.5t20.5 48t57.5 17h113q28 0 40.5 8.5 t12.5 30.5q0 15 -17 68l-57 165q-19 55 -36.5 66.5t-82.5 11.5h-374q-29 0 -43.5 -1.5t-27 -4.5t-19.5 -13t-13 -22t-14 -37l-64 -192q-6 -18 -6 -33q0 -47 55 -47h111q37 0 57.5 -17t20.5 -48t-20.5 -48.5t-57.5 -17.5h-494q-37 0 -57 17.5t-20 48.5zM547 639 q0 -11 11 -14.5t42 -3.5h340q31 0 43 3.5t12 14.5q0 7 -12 39l-207 618h-4l-217 -622q-8 -21 -8 -35z" />
<glyph unicode="B" horiz-adv-x="1466" d="M51 66q0 31 20.5 48t57.5 17h150q40 0 40 41v1059q0 41 -40 41h-150q-37 0 -57.5 17t-20.5 48t20.5 48.5t57.5 17.5h655q189 0 291 -45q88 -38 132 -118t44 -183q0 -232 -188 -293v-4q123 -30 193.5 -121.5t70.5 -230.5q0 -167 -86 -267q-126 -141 -426 -141h-686 q-37 0 -57.5 17.5t-20.5 48.5zM471 211q0 -41 13.5 -53.5t54.5 -12.5h288q169 0 259 67t90 196q0 165 -158 229q-88 35 -232 35h-221q-58 0 -76 -20t-18 -81v-360zM471 907q0 -58 14 -74t58 -16h127q171 0 265 26t129.5 76.5t35.5 139.5q0 57 -27.5 99.5t-75.5 66.5 q-63 32 -219 32h-233q-41 0 -57.5 -20.5t-16.5 -71.5v-258z" />
<glyph unicode="C" horiz-adv-x="1374" d="M104 682q0 158 38.5 294t103.5 228q170 240 469 240q119 0 217.5 -38t157.5 -116l4 4v70q0 37 18 57.5t49 20.5t49.5 -21t18.5 -57v-414q0 -40 -21 -62t-53 -22t-53 22t-21 62v29q0 44 -19 93t-42 81q-105 143 -297 143q-94 0 -171.5 -33.5t-129 -90.5t-87 -133.5 t-51.5 -160t-16 -173.5q0 -130 24 -233t76 -185.5t143 -127t216 -44.5q99 0 171.5 24t113 66t60.5 90t24 106q3 44 19.5 67.5t55.5 23.5q50 -4 66 -25.5t16 -75.5q-5 -61 -23 -118t-58 -115.5t-98.5 -101.5t-151 -70t-207.5 -27q-126 0 -229 37.5t-173 103t-118 157.5 t-69.5 198t-21.5 227z" />
<glyph unicode="D" horiz-adv-x="1550" d="M51 66q0 31 20.5 48t57.5 17h152q41 0 41 41v1059q0 41 -41 41h-152q-37 0 -57.5 17t-20.5 48t20.5 48.5t57.5 17.5h588q184 0 306.5 -33t213.5 -104q213 -164 213 -549q0 -175 -55.5 -325t-157.5 -236q-100 -84 -230.5 -120t-304.5 -36h-573q-37 0 -57.5 17.5 t-20.5 48.5zM477 211q0 -41 13.5 -53.5t54.5 -12.5h137q155 0 258 27t184 94q82 68 125 190.5t43 260.5q0 297 -147 424q-73 62 -170 89t-254 27h-170q-41 0 -57.5 -20.5t-16.5 -71.5v-954z" />
<glyph unicode="E" horiz-adv-x="1423" d="M51 66q0 31 20.5 48t57.5 17h152q41 0 41 41v1059q0 41 -41 41h-152q-37 0 -57.5 17t-20.5 48t20.5 48.5t57.5 17.5h1049q56 0 82 -20.5t26 -73.5v-367q0 -37 -17 -57.5t-48 -20.5t-48.5 20.5t-17.5 57.5v203q0 63 -25 87.5t-92 24.5h-524q-41 0 -41 -40v-363 q0 -41 41 -41h264q41 0 41 41v104q0 37 17.5 57.5t48.5 20.5t48 -20.5t17 -57.5v-462q0 -37 -17 -57.5t-48 -20.5t-48.5 20.5t-17.5 57.5v129q0 41 -41 41h-264q-41 0 -41 -41v-439q0 -41 41 -41h543q67 0 92 24.5t25 88.5v201q0 37 17 57.5t48 20.5t48.5 -20.5t17.5 -57.5 v-365q0 -53 -26.5 -73.5t-82.5 -20.5h-1067q-37 0 -57.5 17.5t-20.5 48.5z" />
<glyph unicode="F" horiz-adv-x="1327" d="M49 66q0 31 20.5 48t57.5 17h152q40 0 40 41v1059q0 41 -40 41h-152q-37 0 -57.5 17t-20.5 48t20.5 48.5t57.5 17.5h1038q56 0 82.5 -20.5t26.5 -73.5v-367q0 -37 -17.5 -57.5t-48.5 -20.5t-48 20.5t-17 57.5v203q0 63 -25 87.5t-92 24.5h-514q-41 0 -41 -40v-361 q0 -41 41 -41h264q41 0 41 41v96q0 37 17.5 57.5t48.5 20.5t48 -20.5t17 -57.5v-499q0 -37 -17 -57.5t-48 -20.5t-48.5 20.5t-17.5 57.5v174q0 41 -41 41h-264q-41 0 -41 -41v-455q0 -41 41 -41h211q37 0 57.5 -17t20.5 -48t-20.5 -48.5t-57.5 -17.5h-596q-37 0 -57.5 17.5 t-20.5 48.5z" />
<glyph unicode="G" horiz-adv-x="1474" d="M115 682q0 140 34 276t107 238q175 248 467 248q119 0 217.5 -38t157.5 -116l4 4v70q0 37 17 57.5t48 20.5t48.5 -20.5t17.5 -57.5v-414q0 -37 -20.5 -60.5t-51.5 -23.5t-51 23.5t-20 60.5v29q0 44 -18.5 94.5t-41.5 81.5q-107 145 -299 145q-94 0 -171.5 -36.5 t-129.5 -96.5t-88 -138.5t-52 -160t-16 -163.5q0 -103 14.5 -190.5t49 -165t86.5 -131.5t131 -85t180 -31q175 0 266 91.5t91 273.5v72q0 41 -41 41h-179q-37 0 -57 17t-20 48t20 48.5t57 17.5h500q37 0 57.5 -17.5t20.5 -48.5t-20.5 -48t-57.5 -17h-92q-41 0 -41 -41v-58 q0 -70 6.5 -205t7.5 -231q0 -39 -20.5 -58.5t-54.5 -19.5q-30 0 -49 20.5t-19 51.5q0 6 4 57q-127 -137 -397 -137q-123 0 -224 39t-170.5 106t-117 159.5t-69 197.5t-21.5 221z" />
<glyph unicode="H" horiz-adv-x="1687" d="M55 66q0 31 20.5 48t57.5 17h166q41 0 41 41v1059q0 41 -41 41h-166q-37 0 -57.5 17t-20.5 48t20.5 48.5t57.5 17.5h529q37 0 57 -17.5t20 -48.5t-20 -48t-57 -17h-130q-40 0 -40 -41v-422h690v422q0 41 -41 41h-129q-37 0 -57.5 17t-20.5 48t20.5 48.5t57.5 17.5h528 q37 0 57.5 -17.5t20.5 -48.5t-20.5 -48t-57.5 -17h-166q-41 0 -41 -41v-1059q0 -41 41 -41h166q37 0 57.5 -17t20.5 -48t-20.5 -48.5t-57.5 -17.5h-528q-37 0 -57.5 17.5t-20.5 48.5t20.5 48t57.5 17h129q41 0 41 41v492h-690v-492q0 -41 40 -41h130q37 0 57 -17t20 -48 t-20 -48.5t-57 -17.5h-529q-37 0 -57.5 17.5t-20.5 48.5z" />
<glyph unicode="I" horiz-adv-x="763" d="M39 66q0 31 20.5 48t57.5 17h166q41 0 41 41v1059q0 41 -41 41h-166q-37 0 -57.5 17t-20.5 48t20.5 48.5t57.5 17.5h569q37 0 57.5 -17.5t20.5 -48.5t-20.5 -48t-57.5 -17h-166q-41 0 -41 -41v-1059q0 -41 41 -41h166q37 0 57.5 -17t20.5 -48t-20.5 -48.5t-57.5 -17.5 h-569q-37 0 -57.5 17.5t-20.5 48.5z" />
<glyph unicode="J" horiz-adv-x="1341" d="M33 373q0 138 83 227.5t218 89.5q76 0 138.5 -43.5t62.5 -120.5q0 -59 -32 -97t-83 -38q-52 0 -76.5 22.5t-24.5 59.5q0 58 54 74q-18 18 -60 18q-44 0 -75.5 -30t-44.5 -69.5t-13 -80.5q0 -124 85 -201.5t270 -77.5q97 0 188 40.5t139 119.5q32 53 45 133.5t13 249.5 v582q0 41 -41 41h-222q-37 0 -57 17t-20 48t20 48.5t57 17.5h609q37 0 57 -17.5t20 -48.5t-20 -48t-57 -17h-154q-41 0 -41 -41v-606q0 -131 -10 -229t-43 -173q-41 -90 -120.5 -151t-170 -87t-190.5 -26q-106 0 -195.5 25t-159.5 74.5t-109.5 130t-39.5 184.5z" />
<glyph unicode="K" horiz-adv-x="1654" d="M55 66q0 31 20.5 48t57.5 17h166q41 0 41 41v1059q0 41 -41 41h-166q-37 0 -57.5 17t-20.5 48t20.5 48.5t57.5 17.5h529q37 0 57 -17.5t20 -48.5t-20 -48t-57 -17h-130q-40 0 -40 -41v-537l591 504q37 32 37 51q0 14 -11.5 18.5t-35.5 4.5h-82q-37 0 -57.5 17t-20.5 48 t20.5 48.5t57.5 17.5h584q37 0 57.5 -17.5t20.5 -48.5t-20.5 -48t-57.5 -17h-100q-66 0 -97.5 -13t-81.5 -57l-362 -309q-37 -34 -37 -49q0 -13 29 -53l374 -510q66 -90 104.5 -120t96.5 -30h98q37 0 57.5 -17t20.5 -48t-20.5 -48.5t-57.5 -17.5h-591q-37 0 -57.5 17.5 t-20.5 48.5t20.5 48t57.5 17h135q41 0 41 31q0 14 -17 41l-360 508q-19 28 -33 28q-18 0 -67 -43l-215 -184v-340q0 -41 40 -41h130q37 0 57 -17t20 -48t-20 -48.5t-57 -17.5h-529q-37 0 -57.5 17.5t-20.5 48.5z" />
<glyph unicode="L" horiz-adv-x="1323" d="M51 66q0 31 20.5 48t57.5 17h154q41 0 41 41v1059q0 41 -41 41h-152q-37 0 -57.5 17t-20.5 48t20.5 48.5t57.5 17.5h590q37 0 57.5 -17.5t20.5 -48.5t-20.5 -48t-57.5 -17h-205q-41 0 -41 -41v-1053q0 -41 41 -41h510q67 0 102 34.5t35 98.5v230q0 37 17.5 57.5 t48.5 20.5t48 -20.5t17 -57.5v-406q0 -53 -26 -73.5t-82 -20.5h-1057q-37 0 -57.5 17.5t-20.5 48.5z" />
<glyph unicode="M" horiz-adv-x="2064" d="M59 66q0 31 20.5 48t57.5 17h166q41 0 41 41v1059q0 41 -41 41h-166q-37 0 -57.5 17t-20.5 48t20.5 48.5t57.5 17.5h395q26 0 47.5 -12t34.5 -27t26 -42.5t18.5 -43.5t13.5 -45l332 -1043h4l335 1043q8 29 13.5 45t18.5 43.5t26 42.5t34.5 27t47.5 12h391 q37 0 57.5 -17.5t20.5 -48.5t-20.5 -48t-57.5 -17h-166q-41 0 -41 -41v-1059q0 -41 41 -41h166q37 0 57.5 -17t20.5 -48t-20.5 -48.5t-57.5 -17.5h-526q-37 0 -57.5 17.5t-20.5 48.5t20.5 48t57.5 17h129q41 0 41 41v1061q0 20 -7 20q-6 0 -12 -14l-381 -1165 q-21 -62 -49 -82.5t-63 -20.5t-63.5 20.5t-49.5 82.5l-381 1165q-6 14 -12 14t-6 -20v-1061q0 -41 41 -41h129q37 0 57 -17t20 -48t-20 -48.5t-57 -17.5h-527q-37 0 -57.5 17.5t-20.5 48.5z" />
<glyph unicode="N" horiz-adv-x="1564" d="M55 63q0 29 20.5 46.5t55.5 17.5h166q43 0 43 43v1063q0 43 -43 43h-166q-35 0 -55.5 17t-20.5 46t20.5 46.5t55.5 17.5h408q39 0 58.5 -15t39.5 -61l516 -1182h8v1088q0 43 -43 43h-112q-35 0 -55.5 17t-20.5 46t20.5 46.5t55.5 17.5h530q35 0 55.5 -17.5t20.5 -46.5 t-20.5 -46t-55.5 -17h-182q-43 0 -43 -43v-1012q0 -128 -33 -195t-111 -67q-55 0 -91.5 37t-78.5 133l-485 1110q-6 16 -14 16q-9 0 -9 -22v-1063q0 -43 43 -43h130q35 0 55 -17.5t20 -46.5t-20 -46t-55 -17h-531q-35 0 -55.5 17t-20.5 46z" />
<glyph unicode="O" horiz-adv-x="1454" d="M102 700q0 120 21.5 227.5t69.5 203t118.5 164.5t175 109t232.5 40t232 -40t174 -109t117.5 -164.5t69 -203t21.5 -227.5q0 -341 -163.5 -541t-450.5 -200q-126 0 -230 42t-174.5 112.5t-119.5 166.5t-71 201.5t-22 218.5zM266 692q0 -84 12.5 -162t45 -156t82.5 -135 t130.5 -92.5t182.5 -35.5t182 35.5t129.5 92.5t81.5 135t44.5 155.5t12.5 162.5q0 600 -452 600q-106 0 -187.5 -35t-130.5 -91t-79.5 -136.5t-42 -161.5t-11.5 -176z" />
<glyph unicode="P" horiz-adv-x="1357" d="M51 66q0 31 20.5 48t57.5 17h156q41 0 41 41v1059q0 41 -41 41h-156q-37 0 -57.5 17t-20.5 48t20.5 48.5t57.5 17.5h616q147 0 238.5 -19.5t161.5 -60.5q76 -46 117 -127.5t41 -187.5q0 -163 -77 -258.5t-208 -131.5q-49 -14 -116 -21t-107.5 -8t-122.5 -1h-154 q-41 0 -41 -41v-375q0 -41 41 -41h180q37 0 57.5 -17t20.5 -48t-20.5 -48.5t-57.5 -17.5h-569q-37 0 -57.5 17.5t-20.5 48.5zM477 778q0 -25 12 -35t37 -10h195q169 0 250 23q91 27 133.5 89t42.5 163q0 88 -35.5 141t-124.5 80.5t-242 27.5h-196q-41 0 -56.5 -20.5 t-15.5 -71.5v-387z" />
<glyph unicode="Q" horiz-adv-x="1419" d="M104 700q0 121 20 228t65.5 202.5t113.5 164.5t171 109t231 40t230 -40t170 -109t113.5 -164.5t65 -202.5t19.5 -228q0 -235 -84 -415t-254 -269v-82q0 -44 4 -77t15.5 -67t37.5 -52.5t65 -18.5q62 0 84.5 33.5t22.5 120.5q0 36 17.5 56t48.5 20t48 -21.5t17 -58.5 q0 -131 -47 -197q-60 -86 -215 -86q-112 0 -178 85.5t-66 242.5v59q-20 -5 -48.5 -8.5t-46.5 -4.5l-19 -1q-126 0 -228 42t-170.5 112.5t-115 166.5t-67 201t-20.5 219zM268 692q0 -379 211 -542l4 4q-53 77 -53 182q0 103 84 166t193 63q71 0 130.5 -28.5t88.5 -85.5 q10 -19 16.5 -39t9.5 -46.5t4 -40t1.5 -48t0.5 -41.5v-50q99 94 140 220t41 286q0 67 -5 126t-18 121t-34 112.5t-55 96t-78.5 76t-107.5 48.5t-139 18t-138 -18t-106.5 -48.5t-78 -76t-54.5 -96t-34 -112.5t-18 -121t-5 -126zM543 283q0 -80 42.5 -130.5t119.5 -50.5 q50 0 114 23v131q0 29 -2.5 53t-11 49.5t-22 42.5t-37.5 28t-56 11q-70 0 -108.5 -43.5t-38.5 -113.5z" />
<glyph unicode="R" horiz-adv-x="1533" d="M53 66q0 31 20.5 48t57.5 17h154q41 0 41 41v1059q0 41 -41 41h-154q-37 0 -57.5 17t-20.5 48t20.5 48.5t57.5 17.5h608q150 0 240 -17.5t158 -56.5q76 -46 117.5 -127.5t41.5 -187.5q0 -238 -202 -336q139 -75 139 -287v-139q0 -63 16.5 -92t55.5 -29q44 0 62.5 28.5 t18.5 92.5v51q0 25 1.5 41.5t7.5 38t21.5 32.5t39.5 11q38 0 57 -24.5t19 -59.5q0 -120 -12.5 -181.5t-38.5 -97.5q-55 -77 -176 -77q-224 0 -224 266v160q0 38 -5 67t-20.5 50t-29 35.5t-45.5 24t-53.5 15t-69.5 7.5t-77.5 2.5t-92.5 0.5h-4h-166q-41 0 -41 -41v-401 q0 -41 41 -41h141q37 0 57.5 -17t20.5 -48t-20.5 -48.5t-57.5 -17.5h-528q-37 0 -57.5 17.5t-20.5 48.5zM477 801q0 -25 12 -35t37 -10h176q235 0 337 55.5t102 206.5q0 130 -87 183.5t-315 53.5h-188q-41 0 -57.5 -20.5t-16.5 -71.5v-362z" />
<glyph unicode="S" horiz-adv-x="1218" d="M94 31v450q0 35 16.5 54.5t47.5 19.5q65 0 65 -74v-53q0 -154 109 -242t289 -88q150 0 247 70.5t97 200.5q0 45 -7 79t-27 66t-54.5 55t-90.5 41t-133 29l-110 16q-140 19 -234 60q-188 87 -188 327q0 100 37.5 178.5t103 126.5t149.5 72.5t183 24.5q98 0 190 -28 t158 -85v37q0 33 16 53.5t46 20.5t45.5 -20t15.5 -54v-387q0 -34 -17 -54t-47 -20q-33 0 -50 19.5t-17 54.5v37q0 140 -98 211t-248 71q-144 0 -225.5 -67t-81.5 -189q0 -110 61 -163t227 -76l88 -12q217 -29 320 -97q76 -51 109.5 -124t33.5 -177q0 -118 -40 -205 t-111 -136t-157.5 -72t-190.5 -23q-269 0 -402 133v-61q0 -72 -63 -72q-29 0 -45.5 19.5t-16.5 52.5z" />
<glyph unicode="T" horiz-adv-x="1314" d="M49 942v383q0 36 19.5 57t50.5 21h1065q31 0 50 -21t19 -57v-383q0 -37 -17 -57.5t-48 -20.5t-48.5 20.5t-17.5 57.5v203q0 64 -24.5 88t-91.5 24h-238q-41 0 -41 -40v-1045q0 -41 41 -41h168q37 0 57.5 -17t20.5 -48t-20.5 -48.5t-57.5 -17.5h-569q-37 0 -57.5 17.5 t-20.5 48.5t20.5 48t57.5 17h168q40 0 40 41v1045q0 40 -40 40h-238q-67 0 -92 -24.5t-25 -87.5v-203q0 -37 -17 -57.5t-48 -20.5t-48.5 20.5t-17.5 57.5z" />
<glyph unicode="U" horiz-adv-x="1433" d="M-51 1337q0 31 20.5 48.5t57.5 17.5h514q37 0 57 -17.5t20 -48.5t-20 -48t-57 -17h-127q-41 0 -41 -41v-608q0 -146 22 -251t80 -169q83 -92 250 -92q165 0 248 92q58 64 80 169t22 251v608q0 41 -41 41h-127q-37 0 -57.5 17t-20.5 48t20.5 48.5t57.5 17.5h514 q37 0 57.5 -17.5t20.5 -48.5t-20.5 -48t-57.5 -17h-153q-41 0 -41 -41v-621q0 -330 -117.5 -490.5t-384.5 -160.5t-385.5 160.5t-118.5 490.5v621q0 41 -41 41h-153q-37 0 -57.5 17t-20.5 48z" />
<glyph unicode="V" horiz-adv-x="1513" d="M-18 1339q0 29 20 46.5t55 17.5h555q35 0 55.5 -17.5t20.5 -46.5t-20.5 -46t-55.5 -17h-123q-43 0 -43 -49q0 -54 23 -121l334 -979l336 1073q8 24 8 47q0 18 -10.5 23.5t-42.5 5.5h-121q-35 0 -55.5 17t-20.5 46t20.5 46.5t55.5 17.5h473q35 0 55.5 -17.5t20.5 -46.5 t-20.5 -46t-55.5 -17h-60q-62 0 -77 -45l-371 -1149q-20 -61 -52.5 -92t-88.5 -31q-54 0 -87 31.5t-55 91.5l-376 1071q-21 59 -49 91t-80 32h-93q-35 0 -55 17t-20 46z" />
<glyph unicode="W" horiz-adv-x="1941" d="M-27 1339q0 29 20.5 46.5t55.5 17.5h561q36 0 57 -17.5t21 -46.5t-25 -46t-63 -17h-84q-56 0 -81 -21.5t-25 -68.5q0 -26 6 -53l202 -1000h5l217 1124q31 166 141 166q55 0 90.5 -46t50.5 -120l213 -1124h4l215 1016q7 31 7 53q0 39 -19 56.5t-63 17.5h-99 q-37 0 -62.5 17.5t-25.5 45.5q0 29 21 46.5t57 17.5h524q35 0 55.5 -17.5t20.5 -46.5t-20.5 -46t-55.5 -17h-88q-32 0 -56 -30t-36 -83l-244 -1081q-26 -123 -122 -123q-121 0 -144 123l-219 1145h-4l-223 -1145q-12 -62 -49.5 -92.5t-92.5 -30.5q-98 0 -124 123l-240 1081 q-10 48 -39 80.5t-59 32.5h-105q-35 0 -55.5 17t-20.5 46z" />
<glyph unicode="X" horiz-adv-x="1624" d="M-25 63q0 29 20.5 46.5t55.5 17.5h78q83 0 139 66l455 540l-395 477q-56 66 -140 66h-94q-35 0 -55.5 17t-20.5 46t20.5 46.5t55.5 17.5h531q35 0 55 -17.5t20 -46.5t-20 -46t-55 -17h-103q-45 0 -45 -21q0 -8 12 -24l322 -389l326 389q10 13 10 24q0 21 -49 21h-78 q-35 0 -55.5 17t-20.5 46t20.5 46.5t55.5 17.5h500q35 0 55 -17.5t20 -46.5t-20 -46t-55 -17h-82q-84 0 -140 -66l-391 -477l451 -540q56 -66 139 -66h68q35 0 55 -17.5t20 -46.5t-20 -46t-55 -17h-547q-35 0 -55.5 17t-20.5 46t20.5 46.5t55.5 17.5h139q47 0 47 20 q0 9 -12 25l-381 449l-375 -449q-12 -16 -12 -25q0 -20 47 -20h143q35 0 55.5 -17.5t20.5 -46.5t-20.5 -46t-55.5 -17h-563q-35 0 -55.5 17t-20.5 46z" />
<glyph unicode="Y" horiz-adv-x="1527" d="M-35 1337q0 31 20.5 48.5t57.5 17.5h526q37 0 57.5 -17.5t20.5 -48.5t-20.5 -48t-57.5 -17h-77q-56 0 -56 -25q0 -12 13 -35l321 -538l332 538q12 18 12 35q0 25 -55 25h-88q-37 0 -57.5 17t-20.5 48t20.5 48.5t57.5 17.5h532q37 0 57.5 -17.5t20.5 -48.5t-20.5 -48 t-57.5 -17h-135q-37 0 -65.5 -25.5t-63.5 -85.5l-389 -643v-346q0 -41 41 -41h190q37 0 57.5 -17t20.5 -48t-20.5 -48.5t-57.5 -17.5h-614q-37 0 -57.5 17.5t-20.5 48.5t20.5 48t57.5 17h190q41 0 41 41v332l-411 678q-35 60 -55 75t-64 15h-125q-37 0 -57.5 17t-20.5 48z " />
<glyph unicode="Z" horiz-adv-x="1284" d="M74 109q0 60 86 165l835 988h-622q-70 0 -95.5 -25t-25.5 -90v-176q0 -35 -17.5 -55.5t-46.5 -20.5t-46 20.5t-17 55.5v356q0 35 19 55.5t49 20.5h923q94 0 94 -68q0 -42 -41 -90l-929 -1104h718q70 0 95.5 25t25.5 90v180q0 35 17.5 55.5t46.5 20.5t46 -20.5t17 -55.5 v-360q0 -35 -18.5 -55.5t-48.5 -20.5h-916q-79 0 -114 24.5t-35 84.5z" />
<glyph unicode="[" horiz-adv-x="514" d="M109 -201v1534q0 31 20.5 50.5t56.5 19.5h234q36 0 57 -19.5t21 -50.5t-21 -50t-57 -19h-123q-41 0 -41 -41v-1313q0 -41 41 -41h123q36 0 57 -19.5t21 -50.5t-21 -50t-57 -19h-234q-36 0 -56.5 19t-20.5 50z" />
<glyph unicode="\" horiz-adv-x="1054" d="M176 1391q0 12 29 12h59q30 0 41.5 -8t24.5 -41l504 -1305q10 -25 10 -35q0 -14 -29 -14h-59q-30 0 -41.5 8t-24.5 41l-497 1290q-17 45 -17 52z" />
<glyph unicode="]" horiz-adv-x="516" d="M51 -201q0 31 21 50.5t57 19.5h123q41 0 41 41v1313q0 41 -41 41h-123q-36 0 -57 19t-21 50t21 50.5t57 19.5h233q36 0 57 -19.5t21 -50.5v-1534q0 -31 -21 -50t-57 -19h-233q-36 0 -57 19t-21 50z" />
<glyph unicode="^" horiz-adv-x="1296" d="M164 610q0 11 6 23l410 784q35 68 79 68q45 0 80 -68l410 -784q6 -12 6 -23q0 -22 -18.5 -36.5t-46.5 -14.5q-69 0 -109 74l-322 590l-321 -590q-40 -74 -109 -74q-28 0 -46.5 14.5t-18.5 36.5z" />
<glyph unicode="_" horiz-adv-x="1069" d="M6 -205q0 21 15 36t38 15h963q23 0 38 -15t15 -36t-15 -36t-38 -15h-963q-23 0 -38 15t-15 36z" />
<glyph unicode="`" horiz-adv-x="555" d="M70 1366q0 39 26.5 68.5t65.5 29.5q40 0 86 -43l217 -186q2 -2 10 -8t11 -9.5t8.5 -9.5t7.5 -12.5t2 -13.5q0 -10 -9 -16.5t-20 -6.5q-7 0 -14.5 2t-17 5.5t-13.5 4.5l-283 105q-37 14 -57 34.5t-20 55.5z" />
<glyph unicode="a" horiz-adv-x="1243" d="M90 270q0 171 135 250q63 36 125 50.5t150 21.5l45 4q29 3 46.5 5t45 6.5t45.5 10t40.5 14t36.5 20t27 26.5t19 35.5t6 44.5q0 92 -73.5 142t-186.5 50q-106 0 -168 -37q-47 -28 -59 -75q21 0 45 -19t24 -55q0 -46 -34.5 -72t-88.5 -26q-49 0 -80.5 37t-31.5 92 q0 60 36 115.5t91 93.5q112 77 272 77q68 0 147.5 -23t131.5 -61q112 -85 112 -288v-435q0 -93 19 -134.5t67 -41.5q80 0 80 125v51q0 25 1.5 41.5t7.5 38t21 32.5t38 11q73 0 73 -94q0 -116 -10.5 -168.5t-42.5 -95.5q-57 -80 -182 -80q-75 0 -131 41t-72 123 q-52 -82 -148 -123t-202 -41q-79 0 -145 17t-119 53t-83 97.5t-30 143.5zM231 279q0 -95 66.5 -141t171.5 -46q154 0 249 81.5t95 232.5v135q-24 -22 -53.5 -37t-68 -22.5t-64 -10.5t-70.5 -6q-10 -1 -31.5 -2t-29.5 -2q-47 -4 -88.5 -14.5t-84 -30t-67.5 -55t-25 -82.5z " />
<glyph unicode="b" horiz-adv-x="1196" d="M-39 1337q0 31 20.5 48.5t57.5 17.5h213q36 0 57 -19.5t21 -50.5v-399h4q100 147 330 147q113 0 202 -45.5t144 -124.5t83.5 -180t28.5 -217t-26 -214.5t-78.5 -175.5t-139.5 -121t-200 -44q-109 0 -209 47t-143 137h-4v-90q0 -69 -70 -69q-66 0 -66 69v1178q0 41 -41 41 h-106q-37 0 -57.5 17t-20.5 48zM336 535q0 -83 17.5 -155t55.5 -136t108.5 -101t166.5 -37q78 0 135.5 32.5t90 90.5t48 129t15.5 156q0 120 -34 215.5t-106 154t-171 58.5q-151 0 -238.5 -109t-87.5 -298z" />
<glyph unicode="c" horiz-adv-x="1085" d="M115 522q0 114 30 213t88.5 177.5t153 123.5t215.5 45q160 0 264 -73q67 -46 102.5 -118t35.5 -149q0 -64 -40 -115t-114 -51q-49 0 -85 32t-36 81q0 42 31.5 67t75.5 27q-3 75 -76 118.5t-164 43.5q-83 0 -148.5 -36t-104.5 -96.5t-59 -131.5t-20 -148 q0 -63 11.5 -123.5t38.5 -117.5t66 -100t98.5 -69t131.5 -26q91 0 158.5 59.5t87.5 137.5q16 72 70 72q37 0 59.5 -22.5t22.5 -57.5q0 -39 -25 -94.5t-65 -98.5q-121 -133 -328 -133q-146 0 -255.5 78t-164.5 204.5t-55 280.5z" />
<glyph unicode="d" horiz-adv-x="1232" d="M92 498q0 102 24.5 205.5t76.5 177.5q65 95 165 147.5t220 52.5q97 0 178.5 -43t132.5 -116v313q0 45 -45 45h-78q-34 0 -54 16.5t-20 44.5t20 45t54 17h184q33 0 53.5 -19t20.5 -47v-1169q0 -45 47 -45h107q33 0 53 -17t20 -45t-19.5 -44.5t-53.5 -16.5h-209 q-33 0 -53.5 19t-20.5 47v81h-4q-43 -78 -136 -133t-210 -55q-148 0 -252 73t-152.5 192.5t-48.5 273.5zM233 518q0 -90 16.5 -163.5t51 -133.5t95.5 -93.5t143 -33.5q76 0 136 26t98 68.5t63 100.5t35 118.5t10 127.5q0 194 -84.5 302.5t-243.5 108.5q-81 0 -144.5 -38.5 t-100.5 -101.5t-56 -136.5t-19 -151.5z" />
<glyph unicode="e" horiz-adv-x="1081" d="M92 502q0 105 33.5 219t93.5 190q68 84 162 127t194 43q91 0 169 -27.5t132 -73.5t92 -107.5t56 -128.5t18 -136q0 -76 -12.5 -90t-83.5 -14h-708v-21q0 -168 96 -275.5t258 -107.5q107 0 180.5 46.5t95.5 125.5q21 74 76 74q34 0 54 -19t20 -51q0 -92 -90 -188 q-59 -65 -155 -97t-198 -32q-154 0 -265 73.5t-164.5 194.5t-53.5 275zM252 643h647q0 125 -88 215t-223 90q-77 0 -138 -25.5t-99.5 -70t-62.5 -96t-36 -113.5z" />
<glyph unicode="f" horiz-adv-x="872" d="M45 66q0 31 20.5 48t57.5 17h108q41 0 41 41v694q0 41 -41 41h-102q-36 0 -57 19.5t-21 50.5t21 50.5t57 19.5h102q41 0 41 43v22q0 156 85 244t266 88q124 0 205 -51t81 -148q0 -44 -24.5 -75t-69.5 -31q-46 0 -71 21t-25 57q0 46 37 67q-49 41 -140 41 q-107 0 -153.5 -57.5t-46.5 -149.5v-28q0 -43 41 -43h157q36 0 57 -19.5t21 -50.5t-21 -50.5t-57 -19.5h-157q-41 0 -41 -41v-694q0 -41 41 -41h155q37 0 57.5 -17t20.5 -48t-20.5 -48.5t-57.5 -17.5h-489q-37 0 -57.5 17.5t-20.5 48.5z" />
<glyph unicode="g" horiz-adv-x="1200" d="M98 -94q0 177 174 250q-161 58 -161 206q0 72 45.5 125.5t124.5 75.5q-52 77 -52 180q0 100 58.5 179t148 119t189.5 40q79 0 127 -18q2 94 72 155.5t177 61.5q97 0 161.5 -49t64.5 -131q0 -54 -30 -92.5t-75 -38.5q-43 0 -66.5 21.5t-23.5 53.5q0 61 68 80 q-56 41 -115 41q-60 0 -87.5 -39.5t-27.5 -105.5q75 -47 118.5 -130.5t43.5 -176.5q0 -102 -53.5 -179t-137.5 -115t-182 -38q-120 0 -260 51q-23 10 -51 10q-47 0 -70.5 -28t-23.5 -64q0 -30 18.5 -51t41.5 -31t61 -15.5t59 -6t53 -0.5h76q214 0 350 -41q104 -31 168 -106 t64 -181q0 -76 -35 -136.5t-90 -97t-127.5 -60.5t-140 -33t-136.5 -9q-57 0 -111 5.5t-115 18.5t-111 37t-92 58.5t-65.5 87t-23.5 117.5zM242 -92q0 -58 41.5 -99t106.5 -60.5t121 -27.5t107 -8t109.5 9t123 29.5t106.5 62.5t42 100q0 47 -27.5 83.5t-68 57.5t-93.5 35 t-97.5 18.5t-85.5 4.5q-56 0 -130 -12.5t-122 -32.5q-53 -25 -93 -68t-40 -92zM369 727q0 -110 74.5 -163.5t197.5 -53.5q113 0 183.5 52.5t70.5 166.5q0 57 -24 102t-63.5 71t-84.5 39t-92 13q-113 0 -187.5 -59t-74.5 -168z" />
<glyph unicode="h" horiz-adv-x="1394" d="M59 1337q0 31 20.5 48.5t57.5 17.5h238q36 0 57 -19.5t21 -50.5v-395h4q40 57 127.5 100t199.5 43q111 0 188.5 -29.5t122.5 -90t65 -142t20 -194.5v-453q0 -41 41 -41h104q37 0 57.5 -17t20.5 -48t-20.5 -48.5t-57.5 -17.5h-407q-37 0 -57.5 17.5t-20.5 48.5t20.5 48 t57.5 17h77q41 0 41 41v453q0 168 -55.5 242.5t-206.5 74.5q-160 0 -258 -123q-32 -40 -47.5 -103.5t-15.5 -174.5v-369q0 -41 41 -41h69q37 0 57.5 -17t20.5 -48t-20.5 -48.5t-57.5 -17.5h-407q-37 0 -57.5 17.5t-20.5 48.5t20.5 48t57.5 17h112q41 0 41 41v1059 q0 41 -41 41h-131q-37 0 -57.5 17t-20.5 48z" />
<glyph unicode="i" horiz-adv-x="634" d="M45 66q0 31 20.5 48t57.5 17h113q40 0 40 41v702q0 41 -40 41h-113q-37 0 -57.5 17.5t-20.5 48.5t20.5 48.5t57.5 17.5h221q36 0 57 -19.5t21 -50.5v-805q0 -41 41 -41h131q37 0 57.5 -17t20.5 -48t-20.5 -48.5t-57.5 -17.5h-471q-37 0 -57.5 17.5t-20.5 48.5zM205 1286 q0 49 34.5 83t82.5 34q50 0 84 -34t34 -83q0 -50 -34.5 -84.5t-83.5 -34.5q-48 0 -82.5 35t-34.5 84z" />
<glyph unicode="j" horiz-adv-x="716" d="M-156 -205q0 50 29.5 84.5t79.5 34.5q40 0 67 -21t27 -63q0 -49 -39 -74q25 -26 55 -35.5t76 -9.5q69 0 114.5 22.5t68.5 67.5t31.5 97.5t8.5 128.5v847q0 41 -40 41h-132q-37 0 -57 17.5t-20 48.5t20 48.5t57 17.5h238q36 0 57 -19.5t21 -50.5v-936q0 -96 -12.5 -170.5 t-49.5 -138.5q-87 -146 -299 -146q-73 0 -139 20.5t-114 70t-48 118.5zM295 1284q0 50 34.5 84.5t84.5 34.5q49 0 82.5 -34.5t33.5 -84.5q0 -48 -33.5 -82.5t-82.5 -34.5t-84 34.5t-35 82.5z" />
<glyph unicode="k" horiz-adv-x="1341" d="M63 1337q0 31 20.5 48.5t57.5 17.5h234q36 0 57 -19.5t21 -50.5v-837l381 362q22 19 22 35q0 22 -37 22h-76q-37 0 -57 17.5t-20 48.5t20 48.5t57 17.5h453q37 0 57.5 -17.5t20.5 -48.5t-20.5 -48.5t-57.5 -17.5h-66q-50 0 -83 -30l-283 -260l307 -394q45 -59 73.5 -79.5 t67.5 -20.5h72q37 0 57.5 -17t20.5 -48t-20.5 -48.5t-57.5 -17.5h-389q-37 0 -57.5 17.5t-20.5 48.5t20.5 48t57.5 17h14q39 0 39 21q0 9 -12 24l-268 361l-215 -191v-174q0 -41 41 -41h73q37 0 57.5 -17t20.5 -48t-20.5 -48.5t-57.5 -17.5h-407q-37 0 -57.5 17.5 t-20.5 48.5t20.5 48t57.5 17h108q41 0 41 41v1059q0 41 -41 41h-127q-37 0 -57.5 17t-20.5 48z" />
<glyph unicode="l" horiz-adv-x="700" d="M63 1337q0 31 20.5 48.5t57.5 17.5h236q36 0 57 -19.5t21 -50.5v-1161q0 -41 41 -41h153q37 0 57.5 -17t20.5 -48t-20.5 -48.5t-57.5 -17.5h-489q-37 0 -57.5 17.5t-20.5 48.5t20.5 48t57.5 17h110q41 0 41 41v1059q0 41 -41 41h-129q-37 0 -57.5 17t-20.5 48z" />
<glyph unicode="m" horiz-adv-x="2027" d="M68 981q0 31 20 48.5t57 17.5h217q36 0 57 -19.5t21 -50.5v-41h4q103 145 297 145q130 0 204.5 -45t109.5 -133q133 178 346 178q88 0 152.5 -22t103.5 -59.5t62.5 -97.5t31.5 -124.5t8 -152.5v-453q0 -41 41 -41h105q37 0 57 -17t20 -48t-20 -48.5t-57 -17.5h-408 q-37 0 -57.5 17.5t-20.5 48.5t20.5 48t57.5 17h78q41 0 41 41v453q0 48 -2 82.5t-8 69.5t-16 59t-27 45.5t-40.5 34t-56.5 19.5t-75 7q-140 0 -215.5 -90.5t-75.5 -259.5v-420q0 -41 41 -41h63q37 0 57.5 -17t20.5 -48t-20.5 -48.5t-57.5 -17.5h-366q-37 0 -57.5 17.5 t-20.5 48.5t20.5 48t57.5 17h77q41 0 41 41v453q0 48 -2 82.5t-8 69.5t-16 59t-27 45.5t-40.5 34t-56.5 19.5t-75 7q-141 0 -216 -95.5t-75 -266.5v-408q0 -41 41 -41h70q37 0 57.5 -17t20.5 -48t-20.5 -48.5t-57.5 -17.5h-387q-37 0 -57.5 17.5t-20.5 48.5t20.5 48t57.5 17 h92q41 0 41 41v702q0 41 -41 41h-111q-37 0 -57 17.5t-20 48.5z" />
<glyph unicode="n" horiz-adv-x="1368" d="M59 66q0 31 20.5 48t57.5 17h105q41 0 41 41v702q0 41 -41 41h-105q-37 0 -57.5 17.5t-20.5 48.5t20.5 48.5t57.5 17.5h205q36 0 57 -19.5t21 -50.5v-45l4 -2q109 151 334 151q217 0 306 -113t89 -343v-453q0 -41 41 -41h104q37 0 57.5 -17t20.5 -48t-20.5 -48.5 t-57.5 -17.5h-407q-37 0 -57.5 17.5t-20.5 48.5t20.5 48t57.5 17h78q41 0 41 41v453q0 168 -55.5 242.5t-206.5 74.5q-161 0 -259 -123q-32 -40 -47.5 -103.5t-15.5 -174.5v-369q0 -41 41 -41h78q37 0 57.5 -17t20.5 -48t-20.5 -48.5t-57.5 -17.5h-408q-37 0 -57.5 17.5 t-20.5 48.5z" />
<glyph unicode="o" horiz-adv-x="1177" d="M92 518q0 114 33.5 215t95.5 179t159.5 123.5t217.5 45.5t217.5 -45.5t159.5 -123.5t95.5 -179t33.5 -215q0 -113 -34 -213.5t-96.5 -178t-159.5 -122.5t-216 -45t-216 45t-159.5 122.5t-96.5 178t-34 213.5zM246 524q0 -62 13.5 -122t42 -115.5t69 -97t99 -66.5 t128.5 -25t128.5 25t99 66.5t69 97t42 115.5t13.5 122q0 80 -23 154t-66 133.5t-111 95t-152 35.5t-152 -35.5t-111 -95t-66 -133.5t-23 -154z" />
<glyph unicode="p" horiz-adv-x="1296" d="M59 -297q0 28 20 44.5t54 16.5h105q47 0 47 46v1060q0 45 -47 45h-105q-33 0 -53.5 19t-20.5 47t20.5 47t53.5 19h207q34 0 55 -19t21 -47v-84h4q50 89 144.5 136.5t199.5 47.5q148 0 253.5 -73.5t155.5 -193t50 -271.5q0 -101 -26.5 -209.5t-78.5 -181.5 q-63 -92 -160 -141.5t-202 -49.5q-110 0 -200 43t-130 115h-4v-312q0 -45 45 -45h160q34 0 53.5 -15.5t19.5 -43.5t-20 -46.5t-53 -18.5h-494q-33 0 -53.5 18.5t-20.5 46.5zM430 506q0 -196 84.5 -305t241.5 -109q148 0 234.5 122.5t86.5 311.5q0 69 -9.5 129t-31.5 114.5 t-56.5 93t-87.5 61t-120 22.5q-76 0 -136 -26t-98 -69t-63 -101t-35 -118.5t-10 -125.5z" />
<glyph unicode="q" horiz-adv-x="1220" d="M98 543q0 152 49 271.5t153 193t251 73.5q110 0 204.5 -49.5t139.5 -142.5l8 98q0 66 66 66q63 0 63 -66v-1177q0 -46 49 -46h105q34 0 54 -16.5t20 -44.5t-20.5 -46.5t-53.5 -18.5h-494q-33 0 -53.5 18.5t-20.5 46.5t20 44.5t54 16.5h160q45 0 45 46v321 q-44 -73 -126 -122.5t-200 -49.5q-111 0 -206.5 50.5t-159.5 144.5q-52 75 -79.5 182t-27.5 207zM240 526q0 -188 88 -308t241 -120q154 0 237 106.5t83 301.5q0 65 -10 125.5t-34.5 118.5t-61.5 101t-95 69t-131 26q-71 0 -126.5 -23t-91 -61t-58 -93t-32 -114.5 t-9.5 -128.5z" />
<glyph unicode="r" horiz-adv-x="1062" d="M53 981q0 28 20.5 47t53.5 19h229q36 0 57 -19.5t21 -50.5v-47h4q109 151 299 151q137 0 228.5 -79t91.5 -218q0 -38 -9.5 -72.5t-28.5 -64t-52 -47.5t-76 -18q-56 0 -86.5 25.5t-30.5 72.5q0 38 24 61t60 23t49 -16q6 21 6 43q0 66 -51.5 108.5t-132.5 42.5 q-156 0 -235 -129q-54 -86 -54 -285v-356q0 -41 41 -41h160q37 0 57.5 -17t20.5 -48t-20.5 -48.5t-57.5 -17.5h-489q-37 0 -57.5 17.5t-20.5 48.5t20.5 48t57.5 17h104q41 0 41 41v702q0 41 -41 41h-129q-33 0 -53.5 19t-20.5 47z" />
<glyph unicode="s" horiz-adv-x="1107" d="M154 41v278q0 38 17 60t48 22q32 0 50 -22t18 -60v-10q0 -104 90 -160.5t229 -56.5q117 0 177.5 49.5t60.5 143.5q0 71 -50 113t-157 61q-19 2 -56.5 8t-54.5 8q-166 25 -250 98v-2q-79 69 -79 203q0 151 105 229t273 78q71 0 147 -23.5t107 -66.5v8q0 34 18 53t48 19 q31 0 48.5 -22t17.5 -60v-244q0 -38 -17.5 -59.5t-48.5 -21.5q-32 0 -50 21.5t-18 59.5v21q0 88 -70.5 133t-185.5 45q-103 0 -165 -42t-62 -126q0 -68 48.5 -105.5t156.5 -56.5q13 -2 43 -7t47 -7q174 -27 240 -70q112 -72 112 -233q0 -220 -184 -301q-81 -37 -209 -37 q-195 0 -301 111v-19q0 -92 -78 -92q-31 0 -48 22t-17 60z" />
<glyph unicode="t" horiz-adv-x="905" d="M55 981q0 32 21.5 49t58.5 17h70q28 0 34.5 10t6.5 53v188q0 36 20.5 57t52.5 21t52 -21t20 -57v-219q0 -22 6 -27t29 -5h242q38 0 59 -18.5t21 -49.5t-21 -48.5t-59 -17.5h-226q-37 0 -45 -4.5t-8 -31.5v-508q0 -160 29 -211.5t125 -51.5q172 0 172 199v117 q0 37 17 57.5t48 20.5t50.5 -21t19.5 -57q0 -92 -1.5 -136t-11.5 -99t-30 -93q-72 -135 -268 -135q-184 0 -252 123q-24 43 -32.5 110t-8.5 197v459q0 45 -12 56t-60 11h-39q-37 0 -58.5 17t-21.5 49z" />
<glyph unicode="u" horiz-adv-x="1366" d="M29 981q0 31 20 48.5t57 17.5h181q37 0 57.5 -17.5t20.5 -48.5v-498q0 -385 276 -385q73 0 142 40t108 102q61 99 61 280v354q0 41 -41 41h-153q-37 0 -57.5 17.5t-20.5 48.5t20.5 48.5t57.5 17.5h260q36 0 57 -19.5t21 -50.5v-805q0 -41 41 -41h104q37 0 57.5 -17 t20.5 -48t-20.5 -48.5t-57.5 -17.5h-205q-36 0 -57 19.5t-21 50.5v59h-4q-59 -80 -153 -125t-201 -45q-99 0 -173 38.5t-118.5 108t-66 160t-21.5 201.5v407q0 41 -41 41h-74q-37 0 -57 17.5t-20 48.5z" />
<glyph unicode="v" horiz-adv-x="1216" d="M-6 985q0 28 20 45t54 17h368q34 0 54 -17t20 -45t-20 -44.5t-54 -16.5h-37q-35 0 -49 -7t-14 -30q0 -18 16 -66l277 -733l268 758q12 32 12 47q0 19 -12 25t-45 6h-25q-34 0 -53.5 16.5t-19.5 44.5t20 45t53 17h353q33 0 53 -17t20 -45t-19.5 -44.5t-53.5 -16.5h-52 q-18 0 -36.5 -14.5t-28.5 -32.5l-311 -803q-53 -115 -131 -115q-91 0 -134 115l-276 735q-29 77 -46 96t-54 19h-43q-34 0 -54 16.5t-20 44.5z" />
<glyph unicode="w" horiz-adv-x="1671" d="M23 985q0 28 20 45t53 17h416q36 0 57 -17t21 -45q0 -27 -25 -44t-63 -17h-51q-50 0 -67 -7t-17 -30q0 -17 2 -25l2 -6l188 -754h16l181 797q20 82 49.5 119t85.5 37q55 0 84 -36.5t47 -117.5l170 -799h16l174 674q15 56 15 96q0 31 -13 41.5t-45 10.5h-59q-38 0 -63 17 t-25 44q0 28 21 45t57 17h413q34 0 54 -17t20 -45t-20 -44.5t-54 -16.5h-71q-64 0 -94 -119l-195 -725q-17 -61 -42.5 -91t-78.5 -30q-98 0 -131 121l-176 821h-4l-195 -821q-15 -65 -46 -93t-87 -28q-53 0 -79 29t-42 92l-190 725q-8 31 -13.5 48t-14.5 36t-20.5 27 t-27.5 8h-80q-34 0 -53.5 16.5t-19.5 44.5z" />
<glyph unicode="x" horiz-adv-x="1361" d="M41 63q0 29 20.5 46.5t55.5 17.5h55q64 0 131 72l264 293q31 39 31 43q0 3 -12 20.5t-17 22.5l-229 270q-67 67 -137 67h-66q-35 0 -55.5 18t-20.5 48t20.5 48t55.5 18h398q35 0 55 -18t20 -48t-20 -48t-55 -18h-23q-41 0 -41 -22q0 -8 18 -35q28 -36 113.5 -136.5 t93.5 -100.5q9 0 93.5 101t121.5 148q11 22 11 23q0 22 -50 22q-33 0 -53 18t-20 48t20 48t55 18h394q35 0 55 -18t20 -48t-20 -48t-55 -18h-86q-48 0 -78.5 -19.5t-79.5 -76.5l-209 -244q-5 -5 -17 -22.5t-12 -20.5q0 -4 31 -43l225 -270q44 -54 74.5 -73t71.5 -19h80 q35 0 55 -17.5t20 -46.5t-20 -46t-55 -17h-414q-35 0 -55.5 17t-20.5 46t24 46.5t60 17.5h29q41 0 41 23q0 6 -12 26q-15 22 -121.5 146t-114.5 124q-5 0 -62.5 -64t-111.5 -128l-55 -64q-17 -17 -17 -36q0 -27 37 -27h47q35 0 55.5 -17.5t20.5 -46.5t-20.5 -46t-55.5 -17 h-405q-35 0 -55.5 17t-20.5 46z" />
<glyph unicode="y" horiz-adv-x="1239" d="M-8 -193q0 62 38 105t101 43q51 0 76.5 -25t25.5 -61q0 -72 -83 -86q30 -64 108 -64q121 0 201 80q35 35 51 75t16 101q0 79 -57 228l-246 622q-36 90 -90 90h-67q-33 0 -53.5 19t-20.5 47t20.5 47t53.5 19h407q33 0 53.5 -19t20.5 -47t-20.5 -47t-53.5 -19h-53 q-49 0 -49 -59q0 -40 26 -113l256 -665l291 760q6 18 6 30q0 47 -51 47h-57q-33 0 -53.5 19t-20.5 47t20.5 47t53.5 19h383q33 0 53 -19t20 -47t-20 -47t-53 -19h-64q-18 0 -36.5 -14.5t-28.5 -32.5l-289 -729q-28 -71 -46 -113t-50 -108t-60 -106t-70.5 -88t-86.5 -74.5 t-103 -45t-125 -18.5q-109 0 -191.5 61t-82.5 160z" />
<glyph unicode="z" horiz-adv-x="1103" d="M74 96q0 60 80 140l680 679h-533q-43 0 -43 -43v-120q0 -36 -17 -58t-46 -22q-30 0 -48 22t-18 58v219q0 35 19.5 55.5t50.5 20.5h696q53 0 79.5 -21t26.5 -57q0 -37 -20.5 -68t-75.5 -88l-674 -682h621q21 0 32 14t11 37v166q0 36 18 57t48 21q29 0 46 -20.5t17 -57.5 v-272q0 -35 -19 -55.5t-49 -20.5h-761q-57 0 -89 26.5t-32 69.5z" />
<glyph unicode="{" horiz-adv-x="497" d="M41 569v6q0 20 17 32.5t59 29.5q22 8 41.5 45t19.5 104v359q0 139 58 199.5t206 60.5q43 0 43 -27q0 -8 -5 -14.5t-14.5 -12t-17 -9t-18.5 -8t-14 -5.5q-11 -6 -22.5 -14.5t-27.5 -25.5t-26 -45.5t-10 -63.5v-340q0 -51 -2 -80.5t-9.5 -65t-23 -56t-44 -38.5t-69.5 -27 v-4q35 -8 60 -20t41 -31.5t26 -39t14.5 -50.5t5.5 -57t1 -68v-340q0 -36 10 -65t26 -45.5t28 -25.5t22 -13q2 -1 13.5 -5.5t19 -8t17 -9t14.5 -12.5t5 -15q0 -26 -43 -26q-149 0 -206.5 60t-57.5 200v358q0 67 -19.5 104.5t-41.5 45.5q-31 13 -43 18.5t-22.5 17t-10.5 27.5z " />
<glyph unicode="|" horiz-adv-x="290" d="M98 -463v1970q0 29 21 48.5t51 19.5q27 0 49.5 -20t22.5 -48v-1970q0 -28 -22.5 -47.5t-49.5 -19.5q-30 0 -51 19t-21 48z" />
<glyph unicode="}" horiz-adv-x="503" d="M78 -236q0 8 5 15t14.5 12.5t17 9t19 8t13.5 5.5q10 4 22 13t28 25.5t26 45.5t10 65v340q0 42 1 68t5.5 57t14.5 50.5t26 39t41 31.5t60 20v4q-41 9 -69.5 27t-44 38.5t-23 56t-9.5 65t-2 80.5v340q0 35 -10 63.5t-26 45.5t-27.5 25.5t-22.5 14.5q-3 1 -14 5.5t-18.5 8 t-17 9t-14.5 12t-5 14.5q0 27 43 27q148 0 206 -60.5t58 -199.5v-359q0 -67 19.5 -104t41.5 -45q42 -17 59 -29.5t17 -32.5v-6q0 -16 -10.5 -27.5t-22.5 -17t-43 -18.5q-22 -8 -41.5 -45.5t-19.5 -104.5v-358q0 -140 -57.5 -200t-206.5 -60q-43 0 -43 26z" />
<glyph unicode="~" horiz-adv-x="1288" d="M102 408q0 19 19 63q22 40 41 69.5t47 63t56.5 55t66.5 36t80 14.5q34 0 79.5 -12t76 -24.5t83.5 -35.5q57 -26 83 -37t64.5 -23t63.5 -12q65 0 119 54.5t84 115.5q13 23 41 23q24 0 43.5 -16t19.5 -40q0 -22 -18 -63q-125 -227 -291 -227q-22 0 -49 5.5t-62.5 18.5 t-56.5 21t-61.5 25.5t-46.5 19.5q-42 18 -58 25t-51.5 16.5t-62.5 9.5q-31 0 -59 -11.5t-47 -26t-39.5 -42.5t-31 -46t-28.5 -52q-13 -23 -41 -23q-24 0 -44 16t-20 40z" />
<glyph unicode="&#xa1;" horiz-adv-x="741" d="M266 948q0 55 38.5 94t92.5 39q55 0 94 -38.5t39 -94.5q0 -54 -39 -92.5t-94 -38.5q-54 0 -92.5 38.5t-38.5 92.5zM315 -309v983q0 28 24 48.5t54 20.5q28 0 53 -20.5t25 -48.5v-983q0 -28 -25 -49t-53 -21q-30 0 -54 20.5t-24 49.5z" />
<glyph unicode="&#xa2;" horiz-adv-x="1370" d="M225 707q0 235 110 382t316 171v190q0 40 12.5 63t49.5 23q38 0 50.5 -23t12.5 -63v-186q148 -6 242 -72q67 -46 105 -118.5t38 -147.5q0 -64 -39.5 -115t-113.5 -51q-49 0 -85 31.5t-36 80.5q0 42 31 67.5t75 27.5q-3 66 -64.5 106.5t-152.5 50.5v-841q91 10 152 66 t80 128q8 36 24 54t45 18q36 0 58 -21t22 -59q0 -99 -88 -193q-108 -120 -293 -131v-198q0 -41 -11 -61.5t-50 -20.5q-40 0 -52 20t-12 62v200q-197 23 -311.5 173t-114.5 387zM375 717q0 -167 70 -281.5t206 -144.5v829q-132 -28 -204 -140t-72 -263z" />
<glyph unicode="&#xa3;" horiz-adv-x="1366" d="M31 197q0 80 41.5 137.5t100 82.5t124.5 25q129 0 291 -106q6 37 6 72q0 40 -12.5 89.5t-23 75.5t-39 88t-32.5 72h-243q-74 0 -74 62q0 61 74 61h182q-41 96 -41 211q0 172 110 274.5t271 102.5q125 0 215 -64q54 -40 88.5 -102.5t34.5 -130.5q0 -64 -29.5 -106 t-85.5 -42q-36 0 -60 23.5t-24 62.5q0 75 68 93q-10 61 -75.5 97t-131.5 36q-102 0 -172 -67t-70 -163q0 -54 10 -89.5t41 -108.5q7 -14 13 -29h340q73 0 73 -61q0 -62 -73 -62h-281q78 -149 78 -295q0 -103 -23 -176q193 -158 324 -158q84 0 133 57t49 154q0 71 -38 120.5 t-99 49.5q-45 0 -78 -27t-43 -77q-8 -37 -22 -53.5t-45 -16.5q-30 0 -46 22.5t-16 57.5q0 62 39 121q73 111 209 111q119 0 196.5 -87t77.5 -225q0 -148 -92 -249t-221 -101q-135 0 -262 86l-121 82q-65 -80 -152 -124t-180 -44q-51 0 -99.5 13.5t-90.5 40.5t-68 74.5 t-26 109.5zM170 205q0 -39 26 -65.5t58 -36t65 -9.5q62 0 120 28.5t89 82.5q-123 96 -241 96q-45 0 -81 -23.5t-36 -72.5z" />
<glyph unicode="&#xa5;" horiz-adv-x="1355" d="M14 1337q0 31 20.5 48.5t57.5 17.5h404q37 0 57 -17.5t20 -48.5t-20 -48t-57 -17h-37q-53 0 -53 -25q0 -12 10 -35l260 -538l270 538q12 21 12 35q0 25 -55 25h-47q-37 0 -57.5 17t-20.5 48t20.5 48.5t57.5 17.5h410q37 0 57 -17.5t20 -48.5t-20 -48t-57 -17h-54 q-37 0 -65.5 -25.5t-63.5 -85.5l-92 -180h226q27 0 43 -17t16 -40q0 -24 -16 -41t-43 -17h-285l-129 -256h414q27 0 43 -17t16 -40q0 -24 -16 -40.5t-43 -16.5h-461v-324q0 -41 41 -41h129q37 0 57.5 -17t20.5 -48t-20.5 -48.5t-57.5 -17.5h-492q-37 0 -57.5 17.5 t-20.5 48.5t20.5 48t57.5 17h129q41 0 41 41v324h-457q-26 0 -43.5 16.5t-17.5 40.5q0 22 17.5 39.5t43.5 17.5h402l-131 256h-271q-26 0 -43.5 17t-17.5 41q0 22 17.5 39.5t43.5 17.5h211l-92 180q-20 38 -34 57.5t-39.5 36.5t-57.5 17h-43q-37 0 -57.5 17t-20.5 48z" />
<glyph unicode="&#xa6;" horiz-adv-x="290" d="M98 -309v639q0 29 21 48t51 19q27 0 49.5 -19.5t22.5 -47.5v-639q0 -28 -22.5 -48t-49.5 -20q-30 0 -51 19.5t-21 48.5zM98 715v639q0 29 21 48t51 19q27 0 49.5 -19.5t22.5 -47.5v-639q0 -28 -22.5 -48t-49.5 -20q-30 0 -51 19.5t-21 48.5z" />
<glyph unicode="&#xa8;" horiz-adv-x="798" d="M109 1276q0 50 33.5 84.5t82.5 34.5t84 -34.5t35 -84.5q0 -49 -34.5 -83t-84.5 -34q-48 0 -82 34t-34 83zM483 1276q0 50 34.5 84.5t84.5 34.5q48 0 82.5 -35t34.5 -84t-34.5 -83t-82.5 -34q-50 0 -84.5 34t-34.5 83z" />
<glyph unicode="&#xa9;" horiz-adv-x="1851" d="M184 698q0 202 100 373.5t272 272t374 100.5q154 0 294.5 -58.5t242 -158t161.5 -237.5t60 -290q0 -151 -60 -288.5t-161.5 -236.5t-241.5 -157.5t-293 -58.5q-203 0 -375 99.5t-272.5 269.5t-100.5 370zM274 698q0 -174 88.5 -323.5t240 -237.5t329.5 -88 q179 0 332 87.5t242 237.5t89 326q0 134 -52.5 256t-142 209.5t-212.5 139t-258 51.5q-133 0 -254.5 -53t-209.5 -141.5t-140 -210t-52 -253.5zM565 684q0 183 84 303q98 143 281 143q117 0 192 -57q1 26 18 40.5t42 14.5q26 0 41.5 -15.5t15.5 -43.5v-235q0 -30 -16.5 -46 t-44.5 -16q-27 0 -44.5 16t-17.5 46v18q0 77 -49.5 119.5t-132.5 42.5q-80 0 -135 -48t-78 -117.5t-23 -152.5q0 -315 238 -315q176 0 188 149q2 31 13.5 46.5t44.5 15.5q40 0 54.5 -17.5t14.5 -48.5q0 -49 -17 -94t-52.5 -84.5t-100.5 -63.5t-151 -24q-94 0 -165.5 33.5 t-114.5 92.5t-64 134t-21 164z" />
<glyph unicode="&#xaa;" horiz-adv-x="890" d="M33 645q0 15 10 25t27 10h659q17 0 27 -10t10 -25t-10 -25t-27 -10h-659q-17 0 -27 10t-10 25zM43 954q0 106 84 156q61 34 170 45q25 2 37 3.5t36.5 5.5t38 9.5t29 14.5t22.5 22.5t7 30.5q0 50 -39.5 77.5t-101.5 27.5q-58 0 -93 -21q-18 -11 -26 -27q37 -8 37 -53 q0 -31 -23 -49t-59 -18q-34 0 -53 24t-19 62q0 35 20.5 72.5t53.5 60.5q61 47 166 47q107 0 172 -51q71 -57 71 -179v-258q0 -49 5.5 -69.5t23.5 -20.5q14 0 20.5 10.5t7.5 20.5t1 31v28q0 24 2 39t14.5 30t36.5 15q55 0 55 -59q0 -78 -5 -112.5t-25 -61.5q-41 -47 -111 -47 q-93 0 -119 80q-34 -36 -91.5 -58t-111.5 -22q-103 0 -168 46.5t-65 147.5zM150 958q0 -50 36 -74t93 -24q84 0 137 46t53 128v60q-27 -18 -62 -25t-106 -12q-37 -2 -68 -11t-57 -31.5t-26 -56.5z" />
<glyph unicode="&#xab;" horiz-adv-x="628" d="M33 555q0 4 4 12t9.5 16.5t6.5 10.5l185 293q1 2 4.5 8t5.5 9.5t6 9t7.5 8.5t9 5.5t10.5 2.5q14 0 24 -9t10 -22q0 -9 -3 -17.5t-9 -20t-8 -17.5l-98 -289l104 -305q14 -49 14 -51q0 -13 -9 -21t-21 -8q-7 0 -13 2.5t-11 8t-7.5 9t-7.5 11.5t-6 10l-189 307q-1 2 -6 10 t-8.5 15.5t-3.5 11.5zM293 555q0 12 20 39l183 293l6 10q6 10 8 12.5t7.5 9t10.5 9t11 2.5q14 0 24 -9t10 -22q0 -12 -8.5 -31.5t-9.5 -23.5l-100 -289l104 -305q14 -37 14 -51q0 -29 -30 -29q-7 0 -13 2.5t-11 8t-7.5 9t-7.5 11.5t-6 10l-189 309q-16 32 -16 35z" />
<glyph unicode="&#xac;" horiz-adv-x="1290" d="M98 754q0 32 23 54.5t59 22.5h885q36 0 61 -23t25 -54v-428q0 -36 -22 -59t-54 -23t-55 23t-23 59v309q0 41 -41 41h-776q-36 0 -59 23t-23 55z" />
<glyph unicode="&#xad;" horiz-adv-x="1357" d="M121 553q0 32 23 55t59 23h934q36 0 59 -23t23 -55t-23 -55t-59 -23h-934q-36 0 -59 23t-23 55z" />
<glyph unicode="&#xae;" horiz-adv-x="1851" d="M184 702q0 151 60 288.5t161 237t240.5 158t292.5 58.5t291.5 -58.5t239 -158t160 -237t59.5 -288.5q0 -152 -59.5 -289.5t-160 -237t-239 -158t-291.5 -58.5t-292.5 58.5t-240.5 158t-161 237t-60 289.5zM276 702q0 -133 52.5 -254t141 -209t211.5 -140t257 -52 q179 0 331 88t240 239t88 328q0 132 -52 252.5t-140 208t-210.5 139.5t-256.5 52t-257 -52t-211.5 -139.5t-141 -208t-52.5 -252.5zM532 352q0 54 62 54h92v602q0 10 -8 10h-84q-62 0 -62 51q0 23 16 37t46 14h342q156 0 233 -45h-2q46 -28 72.5 -77t26.5 -111 q0 -123 -99 -191q64 -50 64 -161v-78q0 -51 22 -51q17 0 23 11.5t6 39.5v26q0 88 57 88q30 0 45 -18.5t15 -44.5q0 -120 -31 -166q-18 -25 -50 -39t-65 -14q-141 0 -141 168v90q0 24 -5 41t-19.5 28t-27.5 17t-42.5 8.5t-49.5 3t-63 0.5h-92q-8 0 -8 -8v-231h86 q28 0 43.5 -14.5t15.5 -39.5q0 -24 -16 -38.5t-43 -14.5h-297q-30 0 -46 14.5t-16 38.5zM805 764q0 -8 10 -8h98q124 0 178 28t54 105q0 64 -45.5 90.5t-163.5 26.5h-105q-15 0 -20.5 -7.5t-5.5 -27.5v-207z" />
<glyph unicode="&#xaf;" horiz-adv-x="862" d="M117 1237q0 48 29 64t79 16h451q106 0 106 -78q0 -80 -106 -80h-451q-51 0 -79.5 15.5t-28.5 62.5z" />
<glyph unicode="&#xb0;" horiz-adv-x="747" d="M82 1126q0 126 90 217t217 91q126 0 216.5 -91t90.5 -217q0 -127 -90.5 -217t-216.5 -90q-127 0 -217 89.5t-90 217.5zM164 1126q0 -94 65.5 -159.5t159.5 -65.5q93 0 159 66t66 159q0 92 -67 159t-160 67q-92 0 -157.5 -66.5t-65.5 -159.5z" />
<glyph unicode="&#xb1;" horiz-adv-x="1288" d="M94 78q0 32 23 55t59 23h918q36 0 59 -23t23 -55t-23 -55t-59 -23h-918q-36 0 -59 23t-23 55zM94 688q0 32 23 55t59 23h381v233q0 36 23 59t55 23t55 -23t23 -59v-233h381q36 0 59 -23t23 -55t-23 -55t-59 -23h-381v-231q0 -36 -23 -59t-55 -23t-55 23t-23 59v231h-381 q-36 0 -59 23t-23 55z" />
<glyph unicode="&#xb2;" horiz-adv-x="868" />
<glyph unicode="&#xb3;" horiz-adv-x="868" />
<glyph unicode="&#xb4;" horiz-adv-x="552" d="M106 1182q0 6 2 12t4 9.5t7 9t7 8t8.5 8t8.5 6.5l217 186q46 43 89 43q38 0 65 -29.5t27 -68.5q0 -60 -78 -90l-285 -105q-4 -1 -13.5 -4.5t-17 -5.5t-14.5 -2q-10 0 -18.5 6.5t-8.5 16.5z" />
<glyph unicode="&#xb5;" horiz-adv-x="1300" d="M12 981q0 31 20.5 48.5t57.5 17.5h180q37 0 57.5 -17.5t20.5 -48.5v-498q0 -385 277 -385q73 0 141.5 40t107.5 102q62 100 62 280v354q0 41 -41 41h-154q-37 0 -57 17.5t-20 48.5t20 48.5t57 17.5h260q36 0 57 -19.5t21 -50.5v-805q0 -41 41 -41h105q37 0 57.5 -17 t20.5 -48t-20.5 -48.5t-57.5 -17.5h-205q-36 0 -57 19.5t-21 50.5v59h-4q-59 -80 -153 -125t-201 -45q-133 0 -224 72v-363q0 -36 -22.5 -59t-54.5 -23t-55 23t-23 59v1206q0 41 -41 41h-74q-37 0 -57.5 17.5t-20.5 48.5z" />
<glyph unicode="&#xb6;" horiz-adv-x="1394" d="M139 977q0 93 24.5 180t78.5 141q100 105 315 105h651q37 0 57.5 -17.5t20.5 -48.5t-20.5 -48t-57.5 -17h-88q-41 0 -41 -41v-1565q0 -37 -18 -57.5t-49 -20.5t-49.5 21t-18.5 57v1561q0 41 -41 41h-24q-41 0 -41 -41v-1561q0 -37 -17.5 -57.5t-48.5 -20.5t-48 20.5 t-17 57.5v862q0 41 -41 41h-91q-219 0 -327.5 94t-108.5 314zM276 971q0 -155 77.5 -213t236.5 -58q67 0 92 24.5t25 88.5v401q0 41 -41 41h-125q-51 0 -83.5 -3t-72.5 -20t-63 -50q-46 -63 -46 -211z" />
<glyph unicode="&#xb7;" horiz-adv-x="385" d="M80 551q0 55 39 94t94 39q54 0 92.5 -39t38.5 -94q0 -54 -38.5 -92.5t-92.5 -38.5q-55 0 -94 38.5t-39 92.5z" />
<glyph unicode="&#xb8;" horiz-adv-x="542" d="M82 -279q0 18 13 32t30 14q20 0 43 -23q48 -51 111 -51q39 0 71.5 17.5t32.5 53.5q0 35 -25.5 52.5t-62.5 17.5q-28 0 -66 -14q-4 -1 -14 -5t-18.5 -6t-16.5 -2q-22 0 -22 21q0 10 18 55l45 107h94l-30 -80q9 0 26 2t25 2q64 0 116 -40t52 -103q0 -54 -35.5 -92.5 t-83.5 -54t-102 -15.5q-34 0 -78.5 11t-83.5 38t-39 63z" />
<glyph unicode="&#xb9;" horiz-adv-x="688" />
<glyph unicode="&#xba;" horiz-adv-x="835" d="M74 645q0 15 10 25t27 10h608q17 0 27 -10t10 -25t-10 -25t-27 -10h-608q-17 0 -27 10t-10 25zM104 1098q0 94 34.5 171.5t106 126t169.5 48.5q97 0 168.5 -48.5t106 -126t34.5 -171.5q0 -144 -83 -243t-226 -99t-226.5 99.5t-83.5 242.5zM219 1102q0 -93 51 -164.5 t144 -71.5t143.5 71.5t50.5 164.5q0 95 -51 163t-143 68t-143.5 -68.5t-51.5 -162.5z" />
<glyph unicode="&#xbb;" horiz-adv-x="630" d="M98 199q0 11 15 51l104 305l-100 289q-13 43 -13 55q0 14 8 22.5t21 8.5q3 0 6 -0.5t5.5 -2t4.5 -2.5t5 -4t4 -5t4 -6t4.5 -6.5t4.5 -8t5 -8.5l184 -293q1 -2 7 -10.5t10 -16.5t4 -12q0 -7 -7.5 -19t-11.5 -16l-188 -309q-1 -1 -8 -13t-10 -15t-11 -8t-18 -5 q-12 0 -20.5 8.5t-8.5 20.5zM358 199q0 6 13 51l104 305l-98 289q-15 43 -15 55q0 31 31 31q5 0 9.5 -2.5t8 -5.5t7.5 -8.5t6 -8.5t5.5 -10t4.5 -8l184 -293q21 -32 21 -39q0 -4 -3.5 -11.5t-8.5 -15.5t-6 -10l-189 -307q-1 -2 -6 -10t-7.5 -11.5t-7.5 -9t-11 -8t-13 -2.5 q-12 0 -20.5 8t-8.5 21z" />
<glyph unicode="&#xbc;" horiz-adv-x="2488" />
<glyph unicode="&#xbd;" horiz-adv-x="2469" />
<glyph unicode="&#xbe;" horiz-adv-x="2426" />
<glyph unicode="&#xbf;" horiz-adv-x="1249" d="M115 0q0 75 24 135.5t71.5 105.5t99 76t124.5 62q44 19 66 29t55.5 31t49.5 41.5t29 53t13 72.5q0 25 2 40.5t9 33t23 26.5t42 9q92 0 92 -103q0 -67 -21.5 -121.5t-64.5 -96.5t-87 -71.5t-110 -64.5q-11 -6 -44.5 -23t-46 -24t-41 -24.5t-40.5 -29t-31.5 -31.5 t-27.5 -38.5t-15 -44t-7 -53.5q0 -66 33 -116.5t87 -79t114.5 -42.5t123.5 -14q65 0 125 10.5t119 35t95 73.5t36 116q0 88 -54 107l3 -19q0 -32 -25 -50.5t-59 -18.5q-40 0 -64.5 28t-24.5 66q0 65 52.5 102t120.5 37q100 0 154 -72.5t54 -175.5q0 -50 -9.5 -94.5 t-31.5 -90t-61 -81.5t-94 -65t-135.5 -44.5t-180.5 -15.5q-85 0 -161 13.5t-147 44.5t-122 77.5t-81.5 118t-30.5 160.5zM594 938q0 55 38.5 94t92.5 39q55 0 94 -38.5t39 -94.5q0 -54 -39 -92.5t-94 -38.5q-54 0 -92.5 38.5t-38.5 92.5z" />
<glyph unicode="&#xc0;" d="M-14 66q0 31 20 48t57 17h84q33 0 49.5 10t26.5 39l414 1153q22 61 50 86t87 25t87 -25t50 -86l381 -1091q24 -66 48 -88.5t65 -22.5h106q37 0 57.5 -17t20.5 -48t-20.5 -48.5t-57.5 -17.5h-532q-37 0 -57.5 17.5t-20.5 48.5t20.5 48t57.5 17h113q28 0 40.5 8.5 t12.5 30.5q0 15 -17 68l-57 165q-19 55 -36.5 66.5t-82.5 11.5h-374q-29 0 -43.5 -1.5t-27 -4.5t-19.5 -13t-13 -22t-14 -37l-64 -192q-6 -18 -6 -33q0 -47 55 -47h111q37 0 57.5 -17t20.5 -48t-20.5 -48.5t-57.5 -17.5h-494q-37 0 -57 17.5t-20 48.5zM547 639 q0 -11 11 -14.5t42 -3.5h340q31 0 43 3.5t12 14.5q0 7 -12 39l-207 618h-4l-217 -622q-8 -21 -8 -35zM563 1737q0 39 26.5 68.5t65.5 29.5q40 0 86 -43l217 -186q1 -1 9.5 -8t11.5 -10t8.5 -9.5t7.5 -13t2 -13.5q0 -10 -8.5 -16t-19.5 -6q-7 0 -14.5 2t-17 5.5t-13.5 4.5 l-283 105q-78 29 -78 90z" />
<glyph unicode="&#xc1;" d="M-14 66q0 31 20 48t57 17h84q33 0 49.5 10t26.5 39l414 1153q22 61 50 86t87 25t87 -25t50 -86l381 -1091q24 -66 48 -88.5t65 -22.5h106q37 0 57.5 -17t20.5 -48t-20.5 -48.5t-57.5 -17.5h-532q-37 0 -57.5 17.5t-20.5 48.5t20.5 48t57.5 17h113q28 0 40.5 8.5 t12.5 30.5q0 15 -17 68l-57 165q-19 55 -36.5 66.5t-82.5 11.5h-374q-29 0 -43.5 -1.5t-27 -4.5t-19.5 -13t-13 -22t-14 -37l-64 -192q-6 -18 -6 -33q0 -47 55 -47h111q37 0 57.5 -17t20.5 -48t-20.5 -48.5t-57.5 -17.5h-494q-37 0 -57 17.5t-20 48.5zM547 639 q0 -11 11 -14.5t42 -3.5h340q31 0 43 3.5t12 14.5q0 7 -12 39l-207 618h-4l-217 -622q-8 -21 -8 -35zM573 1544q0 6 2 12t4 9.5t7 9t7 8t8.5 8t8.5 6.5l217 187q46 43 88 43q38 0 65.5 -29.5t27.5 -68.5q0 -61 -78 -91l-285 -104q-4 -1 -13.5 -4.5t-17 -5.5t-14.5 -2 q-10 0 -18.5 6t-8.5 16z" />
<glyph unicode="&#xc2;" d="M-14 66q0 31 20 48t57 17h84q33 0 49.5 10t26.5 39l414 1153q22 61 50 86t87 25t87 -25t50 -86l381 -1091q24 -66 48 -88.5t65 -22.5h106q37 0 57.5 -17t20.5 -48t-20.5 -48.5t-57.5 -17.5h-532q-37 0 -57.5 17.5t-20.5 48.5t20.5 48t57.5 17h113q28 0 40.5 8.5 t12.5 30.5q0 15 -17 68l-57 165q-19 55 -36.5 66.5t-82.5 11.5h-374q-29 0 -43.5 -1.5t-27 -4.5t-19.5 -13t-13 -22t-14 -37l-64 -192q-6 -18 -6 -33q0 -47 55 -47h111q37 0 57.5 -17t20.5 -48t-20.5 -48.5t-57.5 -17.5h-494q-37 0 -57 17.5t-20 48.5zM420 1534 q0 6 5.5 12.5t11 11t14 10t10.5 7.5l282 201q32 24 43 24t43 -24l283 -201q2 -2 10.5 -7.5t14 -10t11 -11t5.5 -12.5q0 -27 -31 -27q-29 0 -150.5 48.5t-185.5 78.5q-65 -31 -185.5 -79t-149.5 -48q-31 0 -31 27zM547 639q0 -11 11 -14.5t42 -3.5h340q31 0 43 3.5t12 14.5 q0 7 -12 39l-207 618h-4l-217 -622q-8 -21 -8 -35z" />
<glyph unicode="&#xc3;" d="M-14 66q0 31 20 48t57 17h84q33 0 49.5 10t26.5 39l414 1153q22 61 50 86t87 25t87 -25t50 -86l381 -1091q24 -66 48 -88.5t65 -22.5h106q37 0 57.5 -17t20.5 -48t-20.5 -48.5t-57.5 -17.5h-532q-37 0 -57.5 17.5t-20.5 48.5t20.5 48t57.5 17h113q28 0 40.5 8.5 t12.5 30.5q0 15 -17 68l-57 165q-19 55 -36.5 66.5t-82.5 11.5h-374q-29 0 -43.5 -1.5t-27 -4.5t-19.5 -13t-13 -22t-14 -37l-64 -192q-6 -18 -6 -33q0 -47 55 -47h111q37 0 57.5 -17t20.5 -48t-20.5 -48.5t-57.5 -17.5h-494q-37 0 -57 17.5t-20 48.5zM457 1552q0 48 39 111 q53 78 163 78q63 0 199 -51q6 -2 23 -8.5t26 -9.5t23 -7t27 -6t26 -2q24 0 43 10.5t28.5 23t20 23t19.5 10.5q24 0 24 -28q0 -47 -31 -103q-56 -84 -163 -84q-51 0 -167 40t-163 40q-52 0 -82 -43q-1 -2 -4 -7t-5 -7.5t-5 -5.5t-6.5 -4.5t-8.5 -1.5q-26 0 -26 32zM547 639 q0 -11 11 -14.5t42 -3.5h340q31 0 43 3.5t12 14.5q0 7 -12 39l-207 618h-4l-217 -622q-8 -21 -8 -35z" />
<glyph unicode="&#xc4;" d="M-14 66q0 31 20 48t57 17h84q33 0 49.5 10t26.5 39l414 1153q22 61 50 86t87 25t87 -25t50 -86l381 -1091q24 -66 48 -88.5t65 -22.5h106q37 0 57.5 -17t20.5 -48t-20.5 -48.5t-57.5 -17.5h-532q-37 0 -57.5 17.5t-20.5 48.5t20.5 48t57.5 17h113q28 0 40.5 8.5 t12.5 30.5q0 15 -17 68l-57 165q-19 55 -36.5 66.5t-82.5 11.5h-374q-29 0 -43.5 -1.5t-27 -4.5t-19.5 -13t-13 -22t-14 -37l-64 -192q-6 -18 -6 -33q0 -47 55 -47h111q37 0 57.5 -17t20.5 -48t-20.5 -48.5t-57.5 -17.5h-494q-37 0 -57 17.5t-20 48.5zM477 1647q0 50 34 84 t83 34q50 0 84.5 -34.5t34.5 -83.5t-34.5 -83t-84.5 -34q-48 0 -82.5 34t-34.5 83zM547 639q0 -11 11 -14.5t42 -3.5h340q31 0 43 3.5t12 14.5q0 7 -12 39l-207 618h-4l-217 -622q-8 -21 -8 -35zM852 1647q0 49 34.5 83.5t84.5 34.5q48 0 82 -34.5t34 -83.5t-34 -83t-82 -34 q-50 0 -84.5 34t-34.5 83z" />
<glyph unicode="&#xc5;" d="M-14 66q0 31 20 48t57 17h84q33 0 49.5 10t26.5 39l414 1153q22 61 50 86t87 25t87 -25t50 -86l381 -1091q24 -66 48 -88.5t65 -22.5h106q37 0 57.5 -17t20.5 -48t-20.5 -48.5t-57.5 -17.5h-532q-37 0 -57.5 17.5t-20.5 48.5t20.5 48t57.5 17h113q28 0 40.5 8.5 t12.5 30.5q0 15 -17 68l-57 165q-19 55 -36.5 66.5t-82.5 11.5h-374q-29 0 -43.5 -1.5t-27 -4.5t-19.5 -13t-13 -22t-14 -37l-64 -192q-6 -18 -6 -33q0 -47 55 -47h111q37 0 57.5 -17t20.5 -48t-20.5 -48.5t-57.5 -17.5h-494q-37 0 -57 17.5t-20 48.5zM547 639 q0 -11 11 -14.5t42 -3.5h340q31 0 43 3.5t12 14.5q0 7 -12 39l-207 618h-4l-217 -622q-8 -21 -8 -35zM616 1675q0 67 48 115.5t116 48.5t116 -48.5t48 -115.5q0 -69 -48 -117.5t-116 -48.5t-116 48.5t-48 117.5zM696 1675q0 -37 24.5 -61.5t59.5 -24.5t59.5 24.5t24.5 61.5 q0 35 -24.5 59.5t-59.5 24.5t-59.5 -24.5t-24.5 -59.5z" />
<glyph unicode="&#xc6;" horiz-adv-x="2160" d="M-35 66q0 31 20.5 48t57.5 17h88q33 0 51 10t37 39l705 1110q37 58 77 84.5t99 26.5h780q56 0 82.5 -20.5t26.5 -73.5v-365q0 -37 -17.5 -57.5t-48.5 -20.5t-48 20.5t-17 57.5v203q0 63 -25 87.5t-92 24.5h-463q-41 0 -41 -40v-361q0 -41 41 -41h203q41 0 41 41v105 q0 37 17 57t48 20t48.5 -20t17.5 -57v-463q0 -37 -17.5 -57.5t-48.5 -20.5t-48 20.5t-17 57.5v129q0 41 -41 41h-203q-41 0 -41 -41v-441q0 -41 41 -41h481q67 0 92 24.5t25 88.5v201q0 37 17.5 57.5t48.5 20.5t48 -20.5t17 -57.5v-365q0 -53 -26.5 -73.5t-82.5 -20.5h-1005 q-37 0 -57.5 17.5t-20.5 48.5t20.5 48t57.5 17h151q41 0 41 41v231q0 54 -16.5 66t-83.5 12h-303q-61 0 -78.5 -9.5t-50.5 -57.5l-131 -203q-19 -29 -19 -47q0 -33 48 -33h86q37 0 57 -17t20 -48t-20 -48.5t-57 -17.5h-494q-37 0 -57.5 17.5t-20.5 48.5zM692 635 q0 -14 49 -14h285q42 0 50.5 8t8.5 45v596h2l-376 -596q-19 -28 -19 -39z" />
<glyph unicode="&#xc7;" horiz-adv-x="1374" d="M104 680q0 158 38.5 295t103.5 229q170 240 469 240q119 0 217.5 -38t157.5 -116l4 4v70q0 37 18 57.5t49 20.5t49.5 -21t18.5 -57v-414q0 -40 -21 -62t-53 -22t-53 22t-21 62v29q0 44 -19 93t-42 81q-105 143 -297 143q-94 0 -171.5 -34t-129 -91t-87 -134t-51.5 -161 t-16 -174q0 -130 24 -233t76 -185t143 -126.5t216 -44.5q99 0 171.5 24t113 66t60.5 90t24 106q3 44 19.5 67t55.5 23q82 0 82 -86q0 -58 -16 -115.5t-53 -115.5t-92 -103t-141 -75t-191 -35l-23 -59q35 14 76 14q66 0 102.5 -40.5t36.5 -104.5q0 -81 -56 -121.5t-140 -40.5 q-50 0 -97.5 11t-83.5 37.5t-36 63.5q0 17 13 31t30 14q21 0 43 -22q26 -27 51.5 -39t64.5 -12q43 0 78 18.5t35 57.5q0 30 -23.5 47.5t-62.5 17.5h-16q-35 -3 -66 -14q-4 -1 -14 -5t-18.5 -6t-16.5 -2q-23 0 -23 21q0 8 19 55l31 78q-144 9 -253.5 69t-175.5 159 t-98.5 222.5t-32.5 270.5z" />
<glyph unicode="&#xc8;" horiz-adv-x="1423" d="M51 66q0 31 20.5 48t57.5 17h152q41 0 41 41v1059q0 41 -41 41h-152q-37 0 -57.5 17t-20.5 48t20.5 48.5t57.5 17.5h1049q56 0 82 -20.5t26 -73.5v-367q0 -37 -17 -57.5t-48 -20.5t-48.5 20.5t-17.5 57.5v203q0 63 -25 87.5t-92 24.5h-524q-41 0 -41 -40v-363 q0 -41 41 -41h264q41 0 41 41v104q0 37 17.5 57.5t48.5 20.5t48 -20.5t17 -57.5v-462q0 -37 -17 -57.5t-48 -20.5t-48.5 20.5t-17.5 57.5v129q0 41 -41 41h-264q-41 0 -41 -41v-439q0 -41 41 -41h543q67 0 92 24.5t25 88.5v201q0 37 17 57.5t48 20.5t48.5 -20.5t17.5 -57.5 v-365q0 -53 -26.5 -73.5t-82.5 -20.5h-1067q-37 0 -57.5 17.5t-20.5 48.5zM479 1737q0 39 26.5 68.5t65.5 29.5q40 0 86 -43l217 -186q1 -1 9.5 -8t11.5 -10t8.5 -9.5t7.5 -13t2 -13.5q0 -10 -8.5 -16t-19.5 -6q-7 0 -14.5 2t-17 5.5t-13.5 4.5l-283 105q-78 29 -78 90z" />
<glyph unicode="&#xc9;" horiz-adv-x="1423" d="M51 66q0 31 20.5 48t57.5 17h152q41 0 41 41v1059q0 41 -41 41h-152q-37 0 -57.5 17t-20.5 48t20.5 48.5t57.5 17.5h1049q56 0 82 -20.5t26 -73.5v-367q0 -37 -17 -57.5t-48 -20.5t-48.5 20.5t-17.5 57.5v203q0 63 -25 87.5t-92 24.5h-524q-41 0 -41 -40v-363 q0 -41 41 -41h264q41 0 41 41v104q0 37 17.5 57.5t48.5 20.5t48 -20.5t17 -57.5v-462q0 -37 -17 -57.5t-48 -20.5t-48.5 20.5t-17.5 57.5v129q0 41 -41 41h-264q-41 0 -41 -41v-439q0 -41 41 -41h543q67 0 92 24.5t25 88.5v201q0 37 17 57.5t48 20.5t48.5 -20.5t17.5 -57.5 v-365q0 -53 -26.5 -73.5t-82.5 -20.5h-1067q-37 0 -57.5 17.5t-20.5 48.5zM539 1552q0 12 7 23.5t11 15t18 15.5l218 186q46 43 88 43q38 0 65 -29.5t27 -68.5q0 -60 -78 -90l-285 -105q-4 -1 -13.5 -4.5t-17 -5.5t-14.5 -2q-10 0 -18 6t-8 16z" />
<glyph unicode="&#xca;" horiz-adv-x="1423" d="M51 66q0 31 20.5 48t57.5 17h152q41 0 41 41v1059q0 41 -41 41h-152q-37 0 -57.5 17t-20.5 48t20.5 48.5t57.5 17.5h1049q56 0 82 -20.5t26 -73.5v-367q0 -37 -17 -57.5t-48 -20.5t-48.5 20.5t-17.5 57.5v203q0 63 -25 87.5t-92 24.5h-524q-41 0 -41 -40v-363 q0 -41 41 -41h264q41 0 41 41v104q0 37 17.5 57.5t48.5 20.5t48 -20.5t17 -57.5v-462q0 -37 -17 -57.5t-48 -20.5t-48.5 20.5t-17.5 57.5v129q0 41 -41 41h-264q-41 0 -41 -41v-439q0 -41 41 -41h543q67 0 92 24.5t25 88.5v201q0 37 17 57.5t48 20.5t48.5 -20.5t17.5 -57.5 v-365q0 -53 -26.5 -73.5t-82.5 -20.5h-1067q-37 0 -57.5 17.5t-20.5 48.5zM352 1554q0 6 5.5 12.5t11 11t14 10t10.5 7.5l283 201q33 25 43 25t43 -25l282 -201q2 -2 10.5 -7.5t14 -10t11 -11t5.5 -12.5q0 -26 -30 -26q-29 0 -150.5 48.5t-185.5 78.5q-64 -30 -185.5 -78.5 t-150.5 -48.5q-31 0 -31 26z" />
<glyph unicode="&#xcb;" horiz-adv-x="1423" d="M51 66q0 31 20.5 48t57.5 17h152q41 0 41 41v1059q0 41 -41 41h-152q-37 0 -57.5 17t-20.5 48t20.5 48.5t57.5 17.5h1049q56 0 82 -20.5t26 -73.5v-367q0 -37 -17 -57.5t-48 -20.5t-48.5 20.5t-17.5 57.5v203q0 63 -25 87.5t-92 24.5h-524q-41 0 -41 -40v-363 q0 -41 41 -41h264q41 0 41 41v104q0 37 17.5 57.5t48.5 20.5t48 -20.5t17 -57.5v-462q0 -37 -17 -57.5t-48 -20.5t-48.5 20.5t-17.5 57.5v129q0 41 -41 41h-264q-41 0 -41 -41v-439q0 -41 41 -41h543q67 0 92 24.5t25 88.5v201q0 37 17 57.5t48 20.5t48.5 -20.5t17.5 -57.5 v-365q0 -53 -26.5 -73.5t-82.5 -20.5h-1067q-37 0 -57.5 17.5t-20.5 48.5zM424 1647q0 50 34 84t83 34t83.5 -34.5t34.5 -83.5t-34 -83t-84 -34q-48 0 -82.5 34t-34.5 83zM799 1647q0 49 34.5 83.5t84.5 34.5q48 0 82 -34.5t34 -83.5t-34 -83t-82 -34q-50 0 -84.5 34 t-34.5 83z" />
<glyph unicode="&#xcc;" horiz-adv-x="763" d="M39 66q0 31 20.5 48t57.5 17h166q41 0 41 41v1059q0 41 -41 41h-166q-37 0 -57.5 17t-20.5 48t20.5 48.5t57.5 17.5h569q37 0 57.5 -17.5t20.5 -48.5t-20.5 -48t-57.5 -17h-166q-41 0 -41 -41v-1059q0 -41 41 -41h166q37 0 57.5 -17t20.5 -48t-20.5 -48.5t-57.5 -17.5 h-569q-37 0 -57.5 17.5t-20.5 48.5zM162 1737q0 39 26.5 68.5t65.5 29.5q40 0 86 -43l217 -186q1 -1 9.5 -8t11.5 -10t8.5 -9.5t7.5 -13t2 -13.5q0 -10 -9 -16t-20 -6q-7 0 -14.5 2t-17 5.5t-13.5 4.5l-282 105q-78 29 -78 90z" />
<glyph unicode="&#xcd;" horiz-adv-x="763" d="M41 66q0 31 20.5 48t57.5 17h166q41 0 41 41v1059q0 41 -41 41h-166q-37 0 -57.5 17t-20.5 48t20.5 48.5t57.5 17.5h569q37 0 57.5 -17.5t20.5 -48.5t-20.5 -48t-57.5 -17h-166q-41 0 -41 -41v-1059q0 -41 41 -41h166q37 0 57.5 -17t20.5 -48t-20.5 -48.5t-57.5 -17.5 h-569q-37 0 -57.5 17.5t-20.5 48.5zM252 1552q0 5 1 10t3.5 9.5t4.5 7.5t7 8l6.5 6.5t7.5 6.5t7 6l217 186q46 43 88 43q38 0 65 -29.5t27 -68.5q0 -60 -78 -90l-284 -105q-4 -1 -13.5 -4.5t-17 -5.5t-14.5 -2q-10 0 -18.5 6t-8.5 16z" />
<glyph unicode="&#xce;" horiz-adv-x="770" d="M41 66q0 31 20.5 48t57.5 17h166q41 0 41 41v1059q0 41 -41 41h-166q-37 0 -57.5 17t-20.5 48t20.5 48.5t57.5 17.5h569q37 0 57.5 -17.5t20.5 -48.5t-20.5 -48t-57.5 -17h-166q-41 0 -41 -41v-1059q0 -41 41 -41h166q37 0 57.5 -17t20.5 -48t-20.5 -48.5t-57.5 -17.5 h-569q-37 0 -57.5 17.5t-20.5 48.5zM47 1554q0 6 5.5 12.5t11 11t14 10t10.5 7.5l283 201q33 25 43 25t43 -25l282 -201q2 -2 10.5 -7.5t14 -10t11 -11t5.5 -12.5q0 -26 -30 -26q-29 0 -150.5 48.5t-185.5 78.5q-64 -30 -185.5 -78.5t-150.5 -48.5q-31 0 -31 26z" />
<glyph unicode="&#xcf;" horiz-adv-x="763" d="M39 66q0 31 20.5 48t57.5 17h166q41 0 41 41v1059q0 41 -41 41h-166q-37 0 -57.5 17t-20.5 48t20.5 48.5t57.5 17.5h569q37 0 57.5 -17.5t20.5 -48.5t-20.5 -48t-57.5 -17h-166q-41 0 -41 -41v-1059q0 -41 41 -41h166q37 0 57.5 -17t20.5 -48t-20.5 -48.5t-57.5 -17.5 h-569q-37 0 -57.5 17.5t-20.5 48.5zM104 1647q0 50 34 84t83 34q50 0 84.5 -34.5t34.5 -83.5t-34.5 -83t-84.5 -34q-48 0 -82.5 34t-34.5 83zM479 1647q0 49 34.5 83.5t84.5 34.5q48 0 82.5 -34.5t34.5 -83.5t-34.5 -83t-82.5 -34q-50 0 -84.5 34t-34.5 83z" />
<glyph unicode="&#xd0;" horiz-adv-x="1554" d="M55 66q0 31 20.5 48t57.5 17h152q41 0 41 41v483h-170q-38 0 -60 23t-22 55t22 55t60 23h170v420q0 41 -41 41h-152q-37 0 -57.5 17t-20.5 48t20.5 48.5t57.5 17.5h588q184 0 306.5 -33t213.5 -104q213 -164 213 -549q0 -175 -55.5 -325t-157.5 -236q-100 -84 -230 -120 t-304 -36h-574q-37 0 -57.5 17.5t-20.5 48.5zM477 211q0 -41 13.5 -53.5t54.5 -12.5h141q155 0 258 27t184 94q82 68 125 190.5t43 260.5q0 297 -147 424q-73 62 -170 89t-254 27h-174q-41 0 -57.5 -20.5t-16.5 -71.5v-354h334q38 0 60 -23t22 -55t-22 -55t-60 -23h-334 v-444z" />
<glyph unicode="&#xd1;" horiz-adv-x="1564" d="M55 63q0 29 20.5 46.5t55.5 17.5h166q43 0 43 43v1063q0 43 -43 43h-166q-35 0 -55.5 17t-20.5 46t20.5 46.5t55.5 17.5h408q39 0 58.5 -15t39.5 -61l516 -1182h8v1088q0 43 -43 43h-112q-35 0 -55.5 17t-20.5 46t20.5 46.5t55.5 17.5h530q35 0 55.5 -17.5t20.5 -46.5 t-20.5 -46t-55.5 -17h-182q-43 0 -43 -43v-1012q0 -128 -33 -195t-111 -67q-55 0 -91.5 37t-78.5 133l-485 1110q-6 16 -14 16q-9 0 -9 -22v-1063q0 -43 43 -43h130q35 0 55 -17.5t20 -46.5t-20 -46t-55 -17h-531q-35 0 -55.5 17t-20.5 46zM444 1573q0 47 39 110 q53 78 164 78q63 0 199 -51q6 -2 23 -8.5t26 -9.5t23 -7t27 -6t26 -2q24 0 43 10.5t28.5 23.5t19.5 23.5t19 10.5q25 0 25 -29q0 -46 -31 -102q-56 -84 -164 -84q-50 0 -165.5 40t-163.5 40q-52 0 -82 -43q-2 -2 -4.5 -7t-4.5 -8t-5 -6t-6.5 -4.5t-8.5 -1.5q-27 0 -27 33z " />
<glyph unicode="&#xd2;" horiz-adv-x="1456" d="M113 700q0 120 21.5 227.5t69 203t118 164.5t175 109t232.5 40t232 -40t174 -109t117.5 -164.5t69 -203t21.5 -227.5q0 -341 -163.5 -541t-450.5 -200q-126 0 -229.5 42t-174 112.5t-119.5 166.5t-71 201.5t-22 218.5zM276 692q0 -84 12.5 -162t45 -156t82.5 -135 t130.5 -92.5t182.5 -35.5q86 0 156 24.5t118.5 68t83.5 98.5t55 122t29 132.5t9 135.5q0 95 -11.5 176t-42.5 161.5t-80 136.5t-130.5 91t-188.5 35q-106 0 -187.5 -35t-130.5 -91t-79.5 -136.5t-42 -161.5t-11.5 -176zM530 1737q0 39 27 68.5t66 29.5q40 0 86 -43l217 -186 q1 -1 9.5 -8t11.5 -10t8.5 -9.5t7.5 -13t2 -13.5q0 -10 -9 -16t-20 -6q-7 0 -14.5 2t-17 5.5t-13.5 4.5l-283 105q-78 29 -78 90z" />
<glyph unicode="&#xd3;" horiz-adv-x="1456" d="M113 700q0 120 21.5 227.5t69 203t118 164.5t175 109t232.5 40t232 -40t174 -109t117.5 -164.5t69 -203t21.5 -227.5q0 -341 -163.5 -541t-450.5 -200q-126 0 -229.5 42t-174 112.5t-119.5 166.5t-71 201.5t-22 218.5zM276 692q0 -84 12.5 -162t45 -156t82.5 -135 t130.5 -92.5t182.5 -35.5q86 0 156 24.5t118.5 68t83.5 98.5t55 122t29 132.5t9 135.5q0 95 -11.5 176t-42.5 161.5t-80 136.5t-130.5 91t-188.5 35q-106 0 -187.5 -35t-130.5 -91t-79.5 -136.5t-42 -161.5t-11.5 -176zM526 1552q0 5 1 10t3.5 9.5t4.5 7.5t7 8l6.5 6.5 t7.5 6.5t7 6l217 186q46 43 88 43q38 0 65.5 -29.5t27.5 -68.5q0 -60 -78 -90l-285 -105q-4 -1 -13.5 -4.5t-17 -5.5t-14.5 -2q-10 0 -18.5 6t-8.5 16z" />
<glyph unicode="&#xd4;" horiz-adv-x="1454" d="M102 700q0 120 21.5 227.5t69.5 203t118.5 164.5t175 109t232.5 40t232 -40t174 -109t117.5 -164.5t69 -203t21.5 -227.5q0 -341 -163.5 -541t-450.5 -200q-126 0 -230 42t-174.5 112.5t-119.5 166.5t-71 201.5t-22 218.5zM266 692q0 -84 12.5 -162t45 -156t82.5 -135 t130.5 -92.5t182.5 -35.5t182 35.5t129.5 92.5t81.5 135t44.5 155.5t12.5 162.5q0 600 -452 600q-106 0 -187.5 -35t-130.5 -91t-79.5 -136.5t-42 -161.5t-11.5 -176zM373 1534q0 6 5.5 12.5t11 11t14 10t10.5 7.5l282 201q32 24 43 24t43 -24l283 -201q2 -2 10.5 -7.5 t14 -10t11 -11t5.5 -12.5q0 -27 -31 -27q-29 0 -150.5 48.5t-185.5 78.5q-64 -30 -185.5 -78.5t-150.5 -48.5q-30 0 -30 27z" />
<glyph unicode="&#xd5;" horiz-adv-x="1454" d="M102 700q0 120 21.5 227.5t69.5 203t118.5 164.5t175 109t232.5 40t232 -40t174 -109t117.5 -164.5t69 -203t21.5 -227.5q0 -341 -163.5 -541t-450.5 -200q-126 0 -230 42t-174.5 112.5t-119.5 166.5t-71 201.5t-22 218.5zM266 692q0 -84 12.5 -162t45 -156t82.5 -135 t130.5 -92.5t182.5 -35.5t182 35.5t129.5 92.5t81.5 135t44.5 155.5t12.5 162.5q0 600 -452 600q-106 0 -187.5 -35t-130.5 -91t-79.5 -136.5t-42 -161.5t-11.5 -176zM391 1573q0 47 39 110q53 78 164 78q63 0 199 -51q6 -2 23 -8.5t26 -9.5t23 -7t27 -6t26 -2q24 0 43 10.5 t28.5 23.5t19.5 23.5t19 10.5q25 0 25 -29q0 -46 -31 -102q-56 -84 -164 -84q-51 0 -166.5 40t-163.5 40q-52 0 -82 -43q-2 -2 -5.5 -8.5t-5.5 -9.5t-6.5 -6t-10.5 -3q-27 0 -27 33z" />
<glyph unicode="&#xd6;" horiz-adv-x="1454" d="M102 700q0 120 21.5 227.5t69.5 203t118.5 164.5t175 109t232.5 40t232 -40t174 -109t117.5 -164.5t69 -203t21.5 -227.5q0 -341 -163.5 -541t-450.5 -200q-126 0 -230 42t-174.5 112.5t-119.5 166.5t-71 201.5t-22 218.5zM266 692q0 -84 12.5 -162t45 -156t82.5 -135 t130.5 -92.5t182.5 -35.5t182 35.5t129.5 92.5t81.5 135t44.5 155.5t12.5 162.5q0 600 -452 600q-106 0 -187.5 -35t-130.5 -91t-79.5 -136.5t-42 -161.5t-11.5 -176zM418 1647q0 50 34 84t83 34t83.5 -34.5t34.5 -83.5t-34 -83t-84 -34q-48 0 -82.5 34t-34.5 83zM793 1647 q0 49 34.5 83.5t83.5 34.5q48 0 82.5 -34.5t34.5 -83.5t-34.5 -83t-82.5 -34q-50 0 -84 34t-34 83z" />
<glyph unicode="&#xd7;" horiz-adv-x="1275" d="M123 983q0 32 24.5 54t55.5 22q32 0 57 -25l371 -370l370 370q27 27 60 27q32 0 54 -24.5t22 -55.5q0 -32 -25 -57l-371 -371l371 -371q27 -24 27 -59q0 -30 -24.5 -53t-55.5 -23q-33 0 -58 25l-370 370l-371 -370q-25 -25 -59 -25q-32 0 -54 23.5t-22 54.5q0 32 25 57 l370 371l-370 371q-27 27 -27 59z" />
<glyph unicode="&#xd8;" horiz-adv-x="1388" d="M102 700q0 120 21.5 227.5t69.5 203t118.5 164.5t175 109t232.5 40q154 0 278 -62l54 101q18 34 27.5 41.5t37.5 7.5h68q30 0 30 -16q0 -12 -12 -33l-92 -176q113 -99 168 -258t55 -349q0 -341 -163.5 -541t-450.5 -200q-154 0 -287 68l-65 -125q-18 -33 -28 -41t-38 -8 h-68q-30 0 -30 16q0 12 12 33l109 204q-110 102 -166 260t-56 334zM266 692q0 -288 131 -444l529 999q-85 45 -209 45q-106 0 -187.5 -35t-130.5 -91t-79.5 -136.5t-42 -161.5t-11.5 -176zM504 162q88 -51 215 -51q102 0 182 35.5t129.5 92.5t81.5 135t44.5 155.5 t12.5 162.5q0 324 -135 473z" />
<glyph unicode="&#xd9;" horiz-adv-x="1433" d="M-43 1337q0 31 20.5 48.5t57.5 17.5h514q37 0 57.5 -17.5t20.5 -48.5t-20.5 -48t-57.5 -17h-127q-41 0 -41 -41v-608q0 -146 22 -251t80 -169q83 -92 250 -92q165 0 248 92q58 64 80 169t22 251v608q0 41 -41 41h-127q-37 0 -57 17t-20 48t20 48.5t57 17.5h515 q37 0 57 -17.5t20 -48.5t-20 -48t-57 -17h-154q-41 0 -41 -41v-621q0 -330 -117.5 -490.5t-384.5 -160.5t-385.5 160.5t-118.5 490.5v621q0 41 -41 41h-153q-37 0 -57.5 17t-20.5 48zM543 1737q0 39 26.5 68.5t65.5 29.5q40 0 86 -43l217 -186q1 -1 9.5 -8t11.5 -10 t8.5 -9.5t7.5 -13t2 -13.5q0 -10 -9 -16t-20 -6q-7 0 -14.5 2t-17 5.5t-13.5 4.5l-282 105q-78 29 -78 90z" />
<glyph unicode="&#xda;" horiz-adv-x="1433" d="M-43 1337q0 31 20.5 48.5t57.5 17.5h514q37 0 57.5 -17.5t20.5 -48.5t-20.5 -48t-57.5 -17h-127q-41 0 -41 -41v-608q0 -146 22 -251t80 -169q83 -92 250 -92q165 0 248 92q58 64 80 169t22 251v608q0 41 -41 41h-127q-37 0 -57 17t-20 48t20 48.5t57 17.5h515 q37 0 57 -17.5t20 -48.5t-20 -48t-57 -17h-154q-41 0 -41 -41v-621q0 -330 -117.5 -490.5t-384.5 -160.5t-385.5 160.5t-118.5 490.5v621q0 41 -41 41h-153q-37 0 -57.5 17t-20.5 48zM551 1552q0 5 1 10t3.5 9.5t4.5 7.5t7 8l6.5 6.5t7.5 6.5t7 6l217 186q46 43 88 43 q38 0 65 -29.5t27 -68.5q0 -60 -78 -90l-284 -105q-4 -1 -13.5 -4.5t-17 -5.5t-14.5 -2q-10 0 -18.5 6t-8.5 16z" />
<glyph unicode="&#xdb;" horiz-adv-x="1433" d="M-43 1337q0 31 20.5 48.5t57.5 17.5h514q37 0 57.5 -17.5t20.5 -48.5t-20.5 -48t-57.5 -17h-127q-41 0 -41 -41v-608q0 -146 22 -251t80 -169q83 -92 250 -92q165 0 248 92q58 64 80 169t22 251v608q0 41 -41 41h-127q-37 0 -57 17t-20 48t20 48.5t57 17.5h515 q37 0 57 -17.5t20 -48.5t-20 -48t-57 -17h-154q-41 0 -41 -41v-621q0 -330 -117.5 -490.5t-384.5 -160.5t-385.5 160.5t-118.5 490.5v621q0 41 -41 41h-153q-37 0 -57.5 17t-20.5 48zM393 1554q0 6 5.5 12.5t11 11t14 10t10.5 7.5l283 201q33 25 43 25t43 -25l282 -201 q2 -2 10.5 -7.5t14 -10t11 -11t5.5 -12.5q0 -26 -30 -26q-29 0 -150.5 48.5t-185.5 78.5q-64 -30 -185.5 -78.5t-150.5 -48.5q-31 0 -31 26z" />
<glyph unicode="&#xdc;" horiz-adv-x="1433" d="M-43 1337q0 31 20.5 48.5t57.5 17.5h514q37 0 57.5 -17.5t20.5 -48.5t-20.5 -48t-57.5 -17h-127q-41 0 -41 -41v-608q0 -146 22 -251t80 -169q83 -92 250 -92q165 0 248 92q58 64 80 169t22 251v608q0 41 -41 41h-127q-37 0 -57 17t-20 48t20 48.5t57 17.5h515 q37 0 57 -17.5t20 -48.5t-20 -48t-57 -17h-154q-41 0 -41 -41v-621q0 -330 -117.5 -490.5t-384.5 -160.5t-385.5 160.5t-118.5 490.5v621q0 41 -41 41h-153q-37 0 -57.5 17t-20.5 48zM432 1647q0 50 34 84t83 34q50 0 84.5 -34.5t34.5 -83.5t-34.5 -83t-84.5 -34 q-48 0 -82.5 34t-34.5 83zM807 1647q0 49 34.5 83.5t84.5 34.5q48 0 82 -34.5t34 -83.5t-34 -83t-82 -34q-50 0 -84.5 34t-34.5 83z" />
<glyph unicode="&#xdd;" horiz-adv-x="1527" d="M-35 1337q0 31 20.5 48.5t57.5 17.5h526q37 0 57.5 -17.5t20.5 -48.5t-20.5 -48t-57.5 -17h-77q-56 0 -56 -25q0 -12 13 -35l321 -538l332 538q12 18 12 35q0 25 -55 25h-88q-37 0 -57.5 17t-20.5 48t20.5 48.5t57.5 17.5h532q37 0 57.5 -17.5t20.5 -48.5t-20.5 -48 t-57.5 -17h-135q-37 0 -65.5 -25.5t-63.5 -85.5l-389 -643v-346q0 -41 41 -41h190q37 0 57.5 -17t20.5 -48t-20.5 -48.5t-57.5 -17.5h-614q-37 0 -57.5 17.5t-20.5 48.5t20.5 48t57.5 17h190q41 0 41 41v332l-411 678q-35 60 -55 75t-64 15h-125q-37 0 -57.5 17t-20.5 48z M565 1552q0 5 1 10t3.5 9.5t4.5 7.5t7 8l6.5 6.5t7.5 6.5t7 6l217 186q46 43 88 43q38 0 65 -29.5t27 -68.5q0 -60 -77 -90l-285 -105q-4 -1 -13.5 -4.5t-17 -5.5t-14.5 -2q-10 0 -18.5 6t-8.5 16z" />
<glyph unicode="&#xde;" horiz-adv-x="1380" d="M51 66q0 31 20.5 48t57.5 17h156q41 0 41 41v1059q0 41 -41 41h-156q-37 0 -57.5 17t-20.5 48t20.5 48.5t57.5 17.5h567q37 0 57.5 -17.5t20.5 -48.5t-20.5 -48t-57.5 -17h-178q-41 0 -41 -41v-55q0 -46 49 -46h219q147 0 238.5 -19.5t161.5 -59.5q76 -46 117 -128 t41 -188q0 -163 -77 -258t-208 -131q-49 -14 -115 -21.5t-109.5 -8.5t-121.5 -1h-154q-41 0 -41 -41v-102q0 -41 41 -41h180q37 0 57.5 -17t20.5 -48t-20.5 -48.5t-57.5 -17.5h-569q-37 0 -57.5 17.5t-20.5 48.5zM477 506q0 -25 12 -35t37 -10h195q173 0 250 22 q91 27 133.5 89t42.5 163q0 88 -35.5 141t-124.5 81t-242 28h-196q-41 0 -56.5 -20.5t-15.5 -71.5v-387z" />
<glyph unicode="&#xdf;" horiz-adv-x="1327" d="M-18 66q0 31 20 48t57 17h156q41 0 41 41v674q0 41 -41 41h-82q-37 0 -57.5 17t-20.5 48t20.5 48.5t57.5 17.5h100q19 0 27.5 9.5t13.5 31.5l13 45q46 163 135 242q106 96 301 96q86 0 164.5 -33t131 -100.5t52.5 -155.5q0 -75 -33.5 -128t-119.5 -116q-1 0 -19.5 -13.5 t-28.5 -21t-25 -20t-22.5 -21.5t-7.5 -16q0 -17 24 -38t62 -43.5t84.5 -49.5t93 -63t84.5 -77.5t62 -99t24 -122.5q0 -95 -41 -177t-123.5 -135t-189.5 -53q-125 0 -244 86l-4 -4v-4q0 -35 -15.5 -56.5t-45.5 -21.5t-47 21.5t-17 56.5v352q0 37 17.5 57.5t48.5 20.5 t48 -20.5t17 -57.5v-53q0 -116 53 -175t152 -59q110 0 168.5 63.5t58.5 149.5q0 99 -86 158l-258 176q-100 69 -100 158q0 43 27.5 81.5t66.5 68.5l78 60t66.5 67.5t27.5 78.5q0 45 -33.5 77t-76 45t-86.5 13q-89 0 -158.5 -44.5t-103.5 -123.5q-19 -46 -28.5 -110.5 t-11 -106t-1.5 -114.5v-733q0 -31 -20.5 -48.5t-57.5 -17.5h-271q-37 0 -57 17.5t-20 48.5z" />
<glyph unicode="&#xe0;" horiz-adv-x="1241" d="M88 270q0 171 135 250q63 36 125 50.5t150 21.5l45 4q29 3 46.5 5t45 6.5t45.5 10t40.5 14t36.5 20t27 26.5t19 35.5t6 44.5q0 92 -73.5 142t-186.5 50q-106 0 -168 -37q-47 -28 -59 -75q21 0 45 -19t24 -55q0 -46 -34.5 -72t-88.5 -26q-49 0 -80.5 37t-31.5 92 q0 60 36 115.5t91 93.5q112 77 272 77q68 0 147.5 -23t131.5 -61q112 -85 112 -288v-435q0 -93 19 -134.5t67 -41.5q80 0 80 125v51q0 25 1.5 41.5t7.5 38t21 32.5t38 11q73 0 73 -94q0 -116 -10.5 -168.5t-42.5 -95.5q-57 -80 -182 -80q-75 0 -131 41t-72 123 q-52 -82 -148 -123t-202 -41q-79 0 -145 17t-119 53t-83 97.5t-30 143.5zM229 279q0 -95 66.5 -141t171.5 -46q154 0 249 81.5t95 232.5v135q-24 -22 -53.5 -37t-68 -22.5t-64 -10.5t-70.5 -6q-10 -1 -31.5 -2t-29.5 -2q-47 -4 -88.5 -14.5t-84 -30t-67.5 -55t-25 -82.5z M354 1374q0 39 26.5 69t65.5 30q40 0 86 -43l218 -187q1 -1 9.5 -8t11 -10t8 -9t7.5 -12.5t2 -13.5q0 -10 -8.5 -16.5t-19.5 -6.5q-7 0 -15 2t-16.5 6t-13.5 5l-283 104q-78 29 -78 90z" />
<glyph unicode="&#xe1;" horiz-adv-x="1241" d="M88 270q0 171 135 250q63 36 125 50.5t150 21.5l45 4q29 3 46.5 5t45 6.5t45.5 10t40.5 14t36.5 20t27 26.5t19 35.5t6 44.5q0 92 -73.5 142t-186.5 50q-106 0 -168 -37q-47 -28 -59 -75q21 0 45 -19t24 -55q0 -46 -34.5 -72t-88.5 -26q-49 0 -80.5 37t-31.5 92 q0 60 36 115.5t91 93.5q112 77 272 77q68 0 147.5 -23t131.5 -61q112 -85 112 -288v-435q0 -93 19 -134.5t67 -41.5q80 0 80 125v51q0 25 1.5 41.5t7.5 38t21 32.5t38 11q73 0 73 -94q0 -116 -10.5 -168.5t-42.5 -95.5q-57 -80 -182 -80q-75 0 -131 41t-72 123 q-52 -82 -148 -123t-202 -41q-79 0 -145 17t-119 53t-83 97.5t-30 143.5zM229 279q0 -95 66.5 -141t171.5 -46q154 0 249 81.5t95 232.5v135q-24 -22 -53.5 -37t-68 -22.5t-64 -10.5t-70.5 -6q-10 -1 -31.5 -2t-29.5 -2q-47 -4 -88.5 -14.5t-84 -30t-67.5 -55t-25 -82.5z M389 1190q0 6 2 12t4 9.5t7 9t7 8t8.5 8t8.5 6.5l217 187q46 43 88 43q38 0 65 -30t27 -69q0 -60 -78 -90l-284 -104q-5 -1 -13.5 -5t-16.5 -6t-15 -2q-10 0 -18.5 6.5t-8.5 16.5z" />
<glyph unicode="&#xe2;" horiz-adv-x="1241" d="M88 270q0 171 135 250q63 36 125 50.5t150 21.5l45 4q29 3 46.5 5t45 6.5t45.5 10t40.5 14t36.5 20t27 26.5t19 35.5t6 44.5q0 92 -73.5 142t-186.5 50q-106 0 -168 -37q-47 -28 -59 -75q21 0 45 -19t24 -55q0 -46 -34.5 -72t-88.5 -26q-49 0 -80.5 37t-31.5 92 q0 60 36 115.5t91 93.5q112 77 272 77q68 0 147.5 -23t131.5 -61q112 -85 112 -288v-435q0 -93 19 -134.5t67 -41.5q80 0 80 125v51q0 25 1.5 41.5t7.5 38t21 32.5t38 11q73 0 73 -94q0 -116 -10.5 -168.5t-42.5 -95.5q-57 -80 -182 -80q-75 0 -131 41t-72 123 q-52 -82 -148 -123t-202 -41q-79 0 -145 17t-119 53t-83 97.5t-30 143.5zM197 1192q0 6 5.5 12.5t11 11t14 10t10.5 7.5l282 201q32 24 43 24t43 -24l283 -201q2 -2 10.5 -7.5t14 -10t11 -11t5.5 -12.5q0 -27 -31 -27q-29 0 -150.5 48.5t-185.5 78.5q-64 -30 -185.5 -78.5 t-150.5 -48.5q-30 0 -30 27zM229 279q0 -95 66.5 -141t171.5 -46q154 0 249 81.5t95 232.5v135q-24 -22 -53.5 -37t-68 -22.5t-64 -10.5t-70.5 -6q-10 -1 -31.5 -2t-29.5 -2q-47 -4 -88.5 -14.5t-84 -30t-67.5 -55t-25 -82.5z" />
<glyph unicode="&#xe3;" horiz-adv-x="1241" d="M88 270q0 171 135 250q63 36 125 50.5t150 21.5l45 4q29 3 46.5 5t45 6.5t45.5 10t40.5 14t36.5 20t27 26.5t19 35.5t6 44.5q0 92 -73.5 142t-186.5 50q-106 0 -168 -37q-47 -28 -59 -75q21 0 45 -19t24 -55q0 -46 -34.5 -72t-88.5 -26q-49 0 -80.5 37t-31.5 92 q0 60 36 115.5t91 93.5q112 77 272 77q68 0 147.5 -23t131.5 -61q112 -85 112 -288v-435q0 -93 19 -134.5t67 -41.5q80 0 80 125v51q0 25 1.5 41.5t7.5 38t21 32.5t38 11q73 0 73 -94q0 -116 -10.5 -168.5t-42.5 -95.5q-57 -80 -182 -80q-75 0 -131 41t-72 123 q-52 -82 -148 -123t-202 -41q-79 0 -145 17t-119 53t-83 97.5t-30 143.5zM229 279q0 -95 66.5 -141t171.5 -46q154 0 249 81.5t95 232.5v135q-24 -22 -53.5 -37t-68 -22.5t-64 -10.5t-70.5 -6q-10 -1 -31.5 -2t-29.5 -2q-47 -4 -88.5 -14.5t-84 -30t-67.5 -55t-25 -82.5z M240 1210q0 48 39 111q53 78 163 78q63 0 199 -51q6 -2 23 -8.5t26 -9.5t23 -7t27 -6t26 -2q24 0 43 10.5t28.5 23t20 23t19.5 10.5q24 0 24 -28q0 -47 -31 -103q-56 -84 -163 -84q-51 0 -167 40t-163 40q-52 0 -82 -43q-1 -2 -4 -7t-5 -7.5t-5 -5.5t-6.5 -4.5t-8.5 -1.5 q-26 0 -26 32z" />
<glyph unicode="&#xe4;" horiz-adv-x="1241" d="M88 270q0 171 135 250q63 36 125 50.5t150 21.5l45 4q29 3 46.5 5t45 6.5t45.5 10t40.5 14t36.5 20t27 26.5t19 35.5t6 44.5q0 92 -73.5 142t-186.5 50q-106 0 -168 -37q-47 -28 -59 -75q21 0 45 -19t24 -55q0 -46 -34.5 -72t-88.5 -26q-49 0 -80.5 37t-31.5 92 q0 60 36 115.5t91 93.5q112 77 272 77q68 0 147.5 -23t131.5 -61q112 -85 112 -288v-435q0 -93 19 -134.5t67 -41.5q80 0 80 125v51q0 25 1.5 41.5t7.5 38t21 32.5t38 11q73 0 73 -94q0 -116 -10.5 -168.5t-42.5 -95.5q-57 -80 -182 -80q-75 0 -131 41t-72 123 q-52 -82 -148 -123t-202 -41q-79 0 -145 17t-119 53t-83 97.5t-30 143.5zM229 279q0 -95 66.5 -141t171.5 -46q154 0 249 81.5t95 232.5v135q-24 -22 -53.5 -37t-68 -22.5t-64 -10.5t-70.5 -6q-10 -1 -31.5 -2t-29.5 -2q-47 -4 -88.5 -14.5t-84 -30t-67.5 -55t-25 -82.5z M246 1284q0 50 33.5 84.5t82.5 34.5q50 0 84.5 -34.5t34.5 -84.5q0 -49 -34.5 -83t-84.5 -34q-48 0 -82 34t-34 83zM621 1284q0 50 34.5 84.5t83.5 34.5q48 0 82.5 -35t34.5 -84t-34.5 -83t-82.5 -34q-50 0 -84 34t-34 83z" />
<glyph unicode="&#xe5;" horiz-adv-x="1241" d="M88 270q0 171 135 250q63 36 125 50.5t150 21.5l45 4q29 3 46.5 5t45 6.5t45.5 10t40.5 14t36.5 20t27 26.5t19 35.5t6 44.5q0 92 -73.5 142t-186.5 50q-106 0 -168 -37q-47 -28 -59 -75q21 0 45 -19t24 -55q0 -46 -34.5 -72t-88.5 -26q-49 0 -80.5 37t-31.5 92 q0 60 36 115.5t91 93.5q112 77 272 77q68 0 147.5 -23t131.5 -61q112 -85 112 -288v-435q0 -93 19 -134.5t67 -41.5q80 0 80 125v51q0 25 1.5 41.5t7.5 38t21 32.5t38 11q73 0 73 -94q0 -116 -10.5 -168.5t-42.5 -95.5q-57 -80 -182 -80q-75 0 -131 41t-72 123 q-52 -82 -148 -123t-202 -41q-79 0 -145 17t-119 53t-83 97.5t-30 143.5zM229 279q0 -95 66.5 -141t171.5 -46q154 0 249 81.5t95 232.5v135q-24 -22 -53.5 -37t-68 -22.5t-64 -10.5t-70.5 -6q-10 -1 -31.5 -2t-29.5 -2q-47 -4 -88.5 -14.5t-84 -30t-67.5 -55t-25 -82.5z M391 1313q0 67 48.5 115.5t115.5 48.5t115.5 -48.5t48.5 -115.5q0 -69 -48 -117.5t-116 -48.5t-116 48.5t-48 117.5zM471 1313q0 -37 24.5 -61.5t59.5 -24.5t59.5 24.5t24.5 61.5q0 35 -24.5 59.5t-59.5 24.5t-59.5 -24.5t-24.5 -59.5z" />
<glyph unicode="&#xe6;" horiz-adv-x="1912" d="M121 270q0 171 135 250q42 25 91.5 40t83.5 20.5t97 11.5q6 1 22 2t23 2q48 5 76 9t69.5 15t65 27t41 44.5t17.5 66.5q0 92 -74 142t-188 50q-106 0 -168 -37q-48 -28 -60 -75q21 0 45.5 -19t24.5 -55q0 -46 -34 -72t-87 -26q-49 0 -81 37t-32 92q0 59 36 114t91 95 q113 77 271 77q66 0 144.5 -23.5t135.5 -60.5q69 -54 95 -131q24 35 32 45q138 170 357 170q91 0 169 -27.5t132 -73.5t92 -107.5t56 -128.5t18 -136q0 -77 -13 -92.5t-84 -15.5h-706v-21q0 -168 94 -273.5t258 -105.5q102 0 180 52t99 124q21 74 75 74q74 0 74 -69 q0 -95 -92 -193q-59 -65 -154.5 -97t-197.5 -32q-143 0 -247.5 61.5t-166.5 172.5q-57 -107 -170.5 -170.5t-263.5 -63.5q-81 0 -147.5 17t-120 53t-83.5 97.5t-30 143.5zM262 279q0 -96 65.5 -141.5t170.5 -45.5q156 0 251 81.5t95 232.5v135q-24 -22 -53.5 -37t-68 -22.5 t-64.5 -10.5t-72 -6q-10 -1 -32 -2t-30 -2q-47 -4 -88 -14.5t-83 -30t-66.5 -55t-24.5 -82.5zM1026 643h647q-8 129 -98 215t-223 86q-60 0 -109.5 -17t-83.5 -44.5t-61 -68t-43 -81.5t-29 -90z" />
<glyph unicode="&#xe7;" horiz-adv-x="1083" d="M115 522q0 114 30 213t88.5 177.5t153 123.5t215.5 45q160 0 264 -73q67 -46 102.5 -118t35.5 -149q0 -64 -40 -115t-114 -51q-49 0 -85 32t-36 81q0 42 31.5 67t75.5 27q-3 75 -76 118.5t-164 43.5q-83 0 -148.5 -36t-104.5 -96.5t-59 -131.5t-20 -148 q0 -63 11.5 -123.5t38.5 -117.5t66 -100t98.5 -69t131.5 -26q91 0 158.5 59.5t87.5 137.5q16 72 70 72q8 0 20 -3q28 -6 44 -27t16 -50v-15q-16 -101 -88 -178q-115 -126 -316 -133l-18 -49l51 4q64 0 116 -40t52 -103q0 -54 -35.5 -92.5t-83.5 -54t-102 -15.5 q-34 0 -78.5 11t-83.5 38t-39 63q0 18 13 32t30 14q20 0 43 -23q48 -51 111 -51q39 0 71.5 17.5t32.5 53.5q0 35 -25.5 52.5t-62.5 17.5q-28 0 -66 -14q-4 -1 -14 -5t-18.5 -6t-16.5 -2q-22 0 -22 21q0 10 18 55l35 82q-123 20 -213.5 101t-136 199t-45.5 257z" />
<glyph unicode="&#xe8;" horiz-adv-x="1069" d="M90 502q0 105 33.5 219t93.5 190q68 84 162 127t194 43q91 0 169 -27.5t132 -73.5t92 -107.5t56 -128.5t18 -136q0 -76 -12.5 -90t-83.5 -14h-708v-21q0 -168 96 -275.5t258 -107.5q107 0 180.5 46.5t95.5 125.5q21 74 76 74q34 0 54 -19t20 -51q0 -92 -90 -188 q-59 -65 -155 -97t-198 -32q-154 0 -265 73.5t-164.5 194.5t-53.5 275zM250 643h647q0 125 -88 215t-223 90q-77 0 -138 -25.5t-99.5 -70t-62.5 -96t-36 -113.5zM352 1374q0 39 26.5 69t65.5 30q40 0 86 -43l218 -187q1 -1 9.5 -8t11 -10t8 -9t7.5 -12.5t2 -13.5 q0 -10 -8.5 -16.5t-19.5 -6.5q-7 0 -15 2t-16.5 6t-13.5 5l-283 104q-78 29 -78 90z" />
<glyph unicode="&#xe9;" horiz-adv-x="1069" d="M90 502q0 105 33.5 219t93.5 190q68 84 162 127t194 43q91 0 169 -27.5t132 -73.5t92 -107.5t56 -128.5t18 -136q0 -76 -12.5 -90t-83.5 -14h-708v-21q0 -168 96 -275.5t258 -107.5q107 0 180.5 46.5t95.5 125.5q21 74 76 74q34 0 54 -19t20 -51q0 -92 -90 -188 q-59 -65 -155 -97t-198 -32q-154 0 -265 73.5t-164.5 194.5t-53.5 275zM250 643h647q0 125 -88 215t-223 90q-77 0 -138 -25.5t-99.5 -70t-62.5 -96t-36 -113.5zM348 1190q0 6 2 12t4 9.5t7 9t7 8t8.5 8t8.5 6.5l217 187q46 43 88 43q38 0 65 -30t27 -69q0 -60 -77 -90 l-285 -104q-5 -1 -13.5 -5t-16.5 -6t-15 -2q-10 0 -18.5 6.5t-8.5 16.5z" />
<glyph unicode="&#xea;" horiz-adv-x="1069" d="M90 502q0 105 33.5 219t93.5 190q68 84 162 127t194 43q91 0 169 -27.5t132 -73.5t92 -107.5t56 -128.5t18 -136q0 -76 -12.5 -90t-83.5 -14h-708v-21q0 -168 96 -275.5t258 -107.5q107 0 180.5 46.5t95.5 125.5q21 74 76 74q34 0 54 -19t20 -51q0 -92 -90 -188 q-59 -65 -155 -97t-198 -32q-154 0 -265 73.5t-164.5 194.5t-53.5 275zM207 1192q0 6 5.5 12.5t11 11t14 10t10.5 7.5l282 201q32 24 43 24t43 -24l283 -201q2 -2 10.5 -7.5t14 -10t11 -11t5.5 -12.5q0 -27 -31 -27q-29 0 -150.5 48.5t-185.5 78.5q-65 -31 -185.5 -79 t-149.5 -48q-31 0 -31 27zM250 643h647q0 125 -88 215t-223 90q-77 0 -138 -25.5t-99.5 -70t-62.5 -96t-36 -113.5z" />
<glyph unicode="&#xeb;" horiz-adv-x="1069" d="M90 502q0 105 33.5 219t93.5 190q68 84 162 127t194 43q91 0 169 -27.5t132 -73.5t92 -107.5t56 -128.5t18 -136q0 -76 -12.5 -90t-83.5 -14h-708v-21q0 -168 96 -275.5t258 -107.5q107 0 180.5 46.5t95.5 125.5q21 74 76 74q34 0 54 -19t20 -51q0 -92 -90 -188 q-59 -65 -155 -97t-198 -32q-154 0 -265 73.5t-164.5 194.5t-53.5 275zM250 643h647q0 125 -88 215t-223 90q-77 0 -138 -25.5t-99.5 -70t-62.5 -96t-36 -113.5zM262 1284q0 50 34 84.5t83 34.5t84 -34.5t35 -84.5q0 -49 -34.5 -83t-84.5 -34q-48 0 -82.5 34t-34.5 83z M637 1284q0 50 34.5 84.5t84.5 34.5q47 0 81.5 -35t34.5 -84t-34 -83t-82 -34q-50 0 -84.5 34t-34.5 83z" />
<glyph unicode="&#xec;" horiz-adv-x="638" d="M45 1374q0 39 26.5 69t65.5 30q40 0 86 -43l217 -187q2 -2 10 -8t11 -9.5t8.5 -9.5t7.5 -12.5t2 -13.5q0 -10 -8.5 -16.5t-19.5 -6.5q-7 0 -15 2t-16.5 6t-13.5 5l-283 104q-78 29 -78 90zM49 66q0 31 20.5 48t57.5 17h113q41 0 41 41v702q0 41 -41 41h-113 q-37 0 -57.5 17.5t-20.5 48.5t20.5 48.5t57.5 17.5h221q36 0 57 -19.5t21 -50.5v-805q0 -41 41 -41h131q37 0 57.5 -17t20.5 -48t-20.5 -48.5t-57.5 -17.5h-471q-37 0 -57.5 17.5t-20.5 48.5z" />
<glyph unicode="&#xed;" horiz-adv-x="634" d="M45 66q0 31 20.5 48t57.5 17h113q40 0 40 41v702q0 41 -40 41h-113q-37 0 -57.5 17.5t-20.5 48.5t20.5 48.5t57.5 17.5h221q36 0 57 -19.5t21 -50.5v-805q0 -41 41 -41h131q37 0 57.5 -17t20.5 -48t-20.5 -48.5t-57.5 -17.5h-471q-37 0 -57.5 17.5t-20.5 48.5zM133 1190 q0 6 2 12t4 9.5t7 9t7 8t8.5 8t8.5 6.5l217 187q46 43 88 43q38 0 65 -30t27 -69q0 -60 -78 -90l-284 -104q-5 -1 -13.5 -5t-16.5 -6t-15 -2q-10 0 -18.5 6.5t-8.5 16.5z" />
<glyph unicode="&#xee;" horiz-adv-x="659" d="M-55 1192q0 6 5.5 12.5t11 11t14 10t10.5 7.5l282 201q32 24 43 24q5 0 41 -24l287 -201q1 0 6 -4t6.5 -5t6 -4.5t6 -6t4 -6t3.5 -7.5t1 -8q0 -11 -8 -18t-19 -7q-16 0 -43 8t-67 23t-43 16q-19 7 -59 20.5t-71 25.5t-57 26q-59 -28 -179.5 -74.5t-150.5 -46.5t-30 27z M74 66q0 31 20.5 48t57.5 17h112q41 0 41 41v702q0 41 -41 41h-112q-37 0 -57.5 17.5t-20.5 48.5t20.5 48.5t57.5 17.5h221q36 0 57 -19.5t21 -50.5v-805q0 -41 41 -41h131q37 0 57 -17t20 -48t-20 -48.5t-57 -17.5h-471q-37 0 -57.5 17.5t-20.5 48.5z" />
<glyph unicode="&#xef;" horiz-adv-x="632" d="M-37 1284q0 50 34 84.5t83 34.5q50 0 84.5 -34.5t34.5 -84.5q0 -49 -34.5 -83t-84.5 -34q-48 0 -82.5 34t-34.5 83zM43 66q0 31 20.5 48t57.5 17h112q41 0 41 41v702q0 41 -41 41h-112q-37 0 -57.5 17.5t-20.5 48.5t20.5 48.5t57.5 17.5h221q36 0 57 -19.5t21 -50.5v-805 q0 -41 41 -41h131q37 0 57.5 -17t20.5 -48t-20.5 -48.5t-57.5 -17.5h-471q-37 0 -57.5 17.5t-20.5 48.5zM338 1284q0 50 35 84.5t84 34.5q47 0 81.5 -35t34.5 -84t-34 -83t-82 -34q-50 0 -84.5 34t-34.5 83z" />
<glyph unicode="&#xf0;" horiz-adv-x="1177" d="M92 518q0 114 33.5 215t95.5 179t159.5 123.5t217.5 45.5q96 0 162 -37l4 5q-45 69 -156 145l-262 -90q-28 -8 -49 -8q-51 0 -51 43q0 32 43 47l213 74q-71 43 -162 77q-55 20 -55 56q0 49 67 49q23 0 84 -21q104 -39 219 -110l271 92q15 6 37 6q55 0 55 -43 q0 -32 -49 -49l-215 -74q57 -43 103 -88.5t94 -111.5t80 -139.5t52.5 -173t20.5 -212.5t-34 -213.5t-96.5 -178t-159.5 -122.5t-216 -45t-216 45t-159.5 122.5t-96.5 178t-34 213.5zM246 524q0 -62 13.5 -122t42 -115.5t69 -97t99 -66.5t128.5 -25t128.5 25t99 66.5t69 97 t42 115.5t13.5 122q0 80 -23 154t-66 133.5t-111 95t-152 35.5t-152 -35.5t-111 -95t-66 -133.5t-23 -154z" />
<glyph unicode="&#xf1;" horiz-adv-x="1368" d="M59 66q0 31 20.5 48t57.5 17h105q41 0 41 41v702q0 41 -41 41h-105q-37 0 -57.5 17.5t-20.5 48.5t20.5 48.5t57.5 17.5h205q36 0 57 -19.5t21 -50.5v-45l4 -2q109 151 334 151q217 0 306 -113t89 -343v-453q0 -41 41 -41h104q37 0 57.5 -17t20.5 -48t-20.5 -48.5 t-57.5 -17.5h-407q-37 0 -57.5 17.5t-20.5 48.5t20.5 48t57.5 17h78q41 0 41 41v453q0 168 -55.5 242.5t-206.5 74.5q-161 0 -259 -123q-32 -40 -47.5 -103.5t-15.5 -174.5v-369q0 -41 41 -41h78q37 0 57.5 -17t20.5 -48t-20.5 -48.5t-57.5 -17.5h-408q-37 0 -57.5 17.5 t-20.5 48.5zM387 1210q0 48 39 111q53 78 164 78q62 0 198 -51q6 -2 23 -8.5t26 -9.5t23 -7t27 -6t26 -2q24 0 43 10.5t28.5 23t20 23t19.5 10.5q25 0 25 -28q0 -47 -31 -103q-56 -84 -164 -84q-50 0 -166 40t-164 40q-52 0 -82 -43q-1 -2 -5 -8.5t-6 -9t-6.5 -5.5t-10.5 -3 q-27 0 -27 32z" />
<glyph unicode="&#xf2;" horiz-adv-x="1175" d="M90 518q0 114 33.5 215t95.5 179t159.5 123.5t217.5 45.5t217.5 -45.5t159.5 -123.5t95.5 -179t33.5 -215q0 -113 -34 -213.5t-96.5 -178t-159.5 -122.5t-216 -45t-216 45t-159.5 122.5t-96.5 178t-34 213.5zM244 524q0 -62 13.5 -122t42 -115.5t69 -97t99 -66.5 t128.5 -25t128.5 25t99 66.5t69 97t42 115.5t13.5 122q0 80 -23 154t-66 133.5t-111 95t-152 35.5t-152 -35.5t-111 -95t-66 -133.5t-23 -154zM373 1374q0 39 26.5 69t65.5 30q40 0 86 -43l217 -187q2 -2 10 -8t11 -9.5t8.5 -9.5t7.5 -12.5t2 -13.5q0 -10 -9 -16.5t-20 -6.5 q-7 0 -15 2t-16.5 6t-13.5 5l-282 104q-78 29 -78 90z" />
<glyph unicode="&#xf3;" horiz-adv-x="1175" d="M100 518q0 114 33.5 215t95.5 179t159.5 123.5t217.5 45.5t217.5 -45.5t159.5 -123.5t95.5 -179t33.5 -215q0 -113 -34 -213.5t-96.5 -178t-159.5 -122.5t-216 -45t-216 45t-159.5 122.5t-96.5 178t-34 213.5zM254 524q0 -62 13.5 -122t42 -115.5t69 -97t99 -66.5 t128.5 -25t128.5 25t99 66.5t69 97t42 115.5t13.5 122q0 80 -23 154t-66 133.5t-111 95t-152 35.5t-152 -35.5t-111 -95t-66 -133.5t-23 -154zM387 1190q0 6 2 12t4 9.5t7 9t7 8t8.5 8t8.5 6.5l217 187q46 43 88 43q38 0 65 -30t27 -69q0 -60 -78 -90l-284 -104 q-5 -1 -13.5 -5t-16.5 -6t-15 -2q-10 0 -18.5 6.5t-8.5 16.5z" />
<glyph unicode="&#xf4;" horiz-adv-x="1175" d="M90 518q0 114 33.5 215t95.5 179t159.5 123.5t217.5 45.5t217.5 -45.5t159.5 -123.5t95.5 -179t33.5 -215q0 -113 -34 -213.5t-96.5 -178t-159.5 -122.5t-216 -45t-216 45t-159.5 122.5t-96.5 178t-34 213.5zM238 1192q0 6 5.5 12.5t11 11t14 10t10.5 7.5l282 201 q32 24 43 24t43 -24l283 -201q2 -2 10.5 -7.5t14 -10t11 -11t5.5 -12.5q0 -27 -31 -27q-29 0 -150.5 48.5t-185.5 78.5q-64 -30 -185.5 -78.5t-150.5 -48.5q-30 0 -30 27zM244 524q0 -62 13.5 -122t42 -115.5t69 -97t99 -66.5t128.5 -25t128.5 25t99 66.5t69 97t42 115.5 t13.5 122q0 80 -23 154t-66 133.5t-111 95t-152 35.5t-152 -35.5t-111 -95t-66 -133.5t-23 -154z" />
<glyph unicode="&#xf5;" horiz-adv-x="1175" d="M100 518q0 114 33.5 215t95.5 179t159.5 123.5t217.5 45.5t217.5 -45.5t159.5 -123.5t95.5 -179t33.5 -215q0 -113 -34 -213.5t-96.5 -178t-159.5 -122.5t-216 -45t-216 45t-159.5 122.5t-96.5 178t-34 213.5zM254 524q0 -62 13.5 -122t42 -115.5t69 -97t99 -66.5 t128.5 -25t128.5 25t99 66.5t69 97t42 115.5t13.5 122q0 80 -23 154t-66 133.5t-111 95t-152 35.5t-152 -35.5t-111 -95t-66 -133.5t-23 -154zM276 1210q0 48 39 111q53 78 164 78q63 0 199 -51q6 -2 23 -8.5t26 -9.5t23 -7t27 -6t26 -2q24 0 43 10.5t28.5 23t19.5 23 t19 10.5q25 0 25 -28q0 -47 -31 -103q-56 -84 -164 -84q-51 0 -166 40t-163 40q-52 0 -82 -43q-1 -2 -4 -7t-5 -7.5t-5 -5.5t-6.5 -4.5t-8.5 -1.5q-27 0 -27 32z" />
<glyph unicode="&#xf6;" horiz-adv-x="1175" d="M90 518q0 114 33.5 215t95.5 179t159.5 123.5t217.5 45.5t217.5 -45.5t159.5 -123.5t95.5 -179t33.5 -215q0 -113 -34 -213.5t-96.5 -178t-159.5 -122.5t-216 -45t-216 45t-159.5 122.5t-96.5 178t-34 213.5zM244 524q0 -62 13.5 -122t42 -115.5t69 -97t99 -66.5 t128.5 -25t128.5 25t99 66.5t69 97t42 115.5t13.5 122q0 80 -23 154t-66 133.5t-111 95t-152 35.5t-152 -35.5t-111 -95t-66 -133.5t-23 -154zM295 1284q0 50 34 84.5t83 34.5t83.5 -34.5t34.5 -84.5q0 -49 -34 -83t-84 -34q-48 0 -82.5 34t-34.5 83zM670 1284 q0 50 34.5 84.5t83.5 34.5q48 0 82.5 -35t34.5 -84t-34.5 -83t-82.5 -34q-50 0 -84 34t-34 83z" />
<glyph unicode="&#xf8;" horiz-adv-x="1177" d="M92 518q0 114 33.5 215t95.5 179t159.5 123.5t217.5 45.5q121 0 221 -49l49 82q22 35 31 42t35 7h49q31 0 31 -16q0 -10 -13 -33l-88 -141q92 -77 141.5 -196.5t49.5 -258.5q0 -113 -34 -213.5t-96.5 -178t-159.5 -122.5t-216 -45q-149 0 -264 72q-64 -102 -84 -138 l-2 -4q-16 -27 -25.5 -34t-36.5 -7h-43q-30 0 -30 17q0 12 12 33l123 200q-76 77 -116 186.5t-40 233.5zM246 524q0 -164 86 -288l411 673q-71 33 -145 33q-84 0 -152 -35.5t-111 -95t-66 -133.5t-23 -154zM410 156q80 -58 188 -58q70 0 128.5 25t99 66.5t69 97t42 115.5 t13.5 122q0 92 -29.5 176t-86.5 142z" />
<glyph unicode="&#xf9;" horiz-adv-x="1366" d="M29 981q0 31 20 48.5t57 17.5h181q37 0 57.5 -17.5t20.5 -48.5v-498q0 -385 276 -385q73 0 142 40t108 102q61 99 61 280v354q0 41 -41 41h-153q-37 0 -57.5 17.5t-20.5 48.5t20.5 48.5t57.5 17.5h260q36 0 57 -19.5t21 -50.5v-805q0 -41 41 -41h104q37 0 57.5 -17 t20.5 -48t-20.5 -48.5t-57.5 -17.5h-205q-36 0 -57 19.5t-21 50.5v59h-4q-59 -80 -153 -125t-201 -45q-99 0 -173 38.5t-118.5 108t-66 160t-21.5 201.5v407q0 41 -41 41h-74q-37 0 -57 17.5t-20 48.5zM311 1374q0 39 26.5 69t65.5 30q40 0 86 -43l218 -187q1 -1 9.5 -8 t11 -10t8 -9t7.5 -12.5t2 -13.5q0 -10 -8.5 -16.5t-19.5 -6.5q-7 0 -15 2t-16.5 6t-13.5 5l-283 104q-78 29 -78 90z" />
<glyph unicode="&#xfa;" horiz-adv-x="1366" d="M29 981q0 31 20 48.5t57 17.5h181q37 0 57.5 -17.5t20.5 -48.5v-498q0 -385 276 -385q73 0 142 40t108 102q61 99 61 280v354q0 41 -41 41h-153q-37 0 -57.5 17.5t-20.5 48.5t20.5 48.5t57.5 17.5h260q36 0 57 -19.5t21 -50.5v-805q0 -41 41 -41h104q37 0 57.5 -17 t20.5 -48t-20.5 -48.5t-57.5 -17.5h-205q-36 0 -57 19.5t-21 50.5v59h-4q-59 -80 -153 -125t-201 -45q-99 0 -173 38.5t-118.5 108t-66 160t-21.5 201.5v407q0 41 -41 41h-74q-37 0 -57 17.5t-20 48.5zM449 1190q0 5 1 10t3.5 9.5t4.5 7.5t6.5 7.5t6.5 6t7.5 6.5t6.5 6 l217 187q46 43 89 43q38 0 65 -30t27 -69q0 -60 -78 -90l-285 -104q-5 -1 -13.5 -5t-16.5 -6t-15 -2q-10 0 -18 6.5t-8 16.5z" />
<glyph unicode="&#xfb;" horiz-adv-x="1366" d="M29 981q0 31 20 48.5t57 17.5h181q37 0 57.5 -17.5t20.5 -48.5v-498q0 -385 276 -385q73 0 142 40t108 102q61 99 61 280v354q0 41 -41 41h-153q-37 0 -57.5 17.5t-20.5 48.5t20.5 48.5t57.5 17.5h260q36 0 57 -19.5t21 -50.5v-805q0 -41 41 -41h104q37 0 57.5 -17 t20.5 -48t-20.5 -48.5t-57.5 -17.5h-205q-36 0 -57 19.5t-21 50.5v59h-4q-59 -80 -153 -125t-201 -45q-99 0 -173 38.5t-118.5 108t-66 160t-21.5 201.5v407q0 41 -41 41h-74q-37 0 -57 17.5t-20 48.5zM250 1192q0 6 5.5 12.5t11 11t14 10t10.5 7.5l282 201q32 24 43 24 t43 -24l283 -201q2 -2 10.5 -7.5t14 -10t11 -11t5.5 -12.5q0 -27 -31 -27q-29 0 -150.5 48.5t-185.5 78.5q-65 -31 -185.5 -79t-149.5 -48q-31 0 -31 27z" />
<glyph unicode="&#xfc;" horiz-adv-x="1366" d="M29 981q0 31 20 48.5t57 17.5h181q37 0 57.5 -17.5t20.5 -48.5v-498q0 -385 276 -385q73 0 142 40t108 102q61 99 61 280v354q0 41 -41 41h-153q-37 0 -57.5 17.5t-20.5 48.5t20.5 48.5t57.5 17.5h260q36 0 57 -19.5t21 -50.5v-805q0 -41 41 -41h104q37 0 57.5 -17 t20.5 -48t-20.5 -48.5t-57.5 -17.5h-205q-36 0 -57 19.5t-21 50.5v59h-4q-59 -80 -153 -125t-201 -45q-99 0 -173 38.5t-118.5 108t-66 160t-21.5 201.5v407q0 41 -41 41h-74q-37 0 -57 17.5t-20 48.5zM315 1284q0 50 34 84.5t83 34.5q50 0 84.5 -34.5t34.5 -84.5 q0 -49 -34.5 -83t-84.5 -34q-48 0 -82.5 34t-34.5 83zM690 1284q0 50 35 84.5t84 34.5q48 0 82.5 -35t34.5 -84t-34.5 -83t-82.5 -34q-50 0 -84.5 34t-34.5 83z" />
<glyph unicode="&#xfd;" horiz-adv-x="1239" d="M-8 -193q0 62 38 105t101 43q51 0 76.5 -25t25.5 -61q0 -72 -83 -86q30 -64 108 -64q121 0 201 80q35 35 51 75t16 101q0 79 -57 228l-246 622q-36 90 -90 90h-67q-33 0 -53.5 19t-20.5 47t20.5 47t53.5 19h407q33 0 53.5 -19t20.5 -47t-20.5 -47t-53.5 -19h-53 q-49 0 -49 -59q0 -40 26 -113l256 -665l291 760q6 18 6 30q0 47 -51 47h-57q-33 0 -53.5 19t-20.5 47t20.5 47t53.5 19h383q33 0 53 -19t20 -47t-20 -47t-53 -19h-64q-18 0 -36.5 -14.5t-28.5 -32.5l-289 -729q-28 -71 -46 -113t-50 -108t-60 -106t-70.5 -88t-86.5 -74.5 t-103 -45t-125 -18.5q-109 0 -191.5 61t-82.5 160zM401 1190q0 6 2 12t4 9.5t7 9t7 8t8.5 8t8.5 6.5l217 187q46 43 88 43q38 0 65.5 -30t27.5 -69q0 -60 -78 -90l-285 -104q-5 -1 -13.5 -5t-16.5 -6t-15 -2q-10 0 -18.5 6.5t-8.5 16.5z" />
<glyph unicode="&#xfe;" horiz-adv-x="1294" d="M55 -297q0 31 20.5 48.5t57.5 17.5h105q41 0 41 41v1421q0 41 -41 41h-105q-37 0 -57.5 17t-20.5 48t20.5 48.5t57.5 17.5h205q36 0 57 -19.5t21 -50.5v-436h4q44 91 137 137.5t203 46.5q112 0 200.5 -41.5t144.5 -115t85 -170.5t29 -211q0 -104 -26.5 -211t-78.5 -182 q-64 -94 -159.5 -142.5t-211.5 -48.5q-99 0 -185.5 41.5t-131.5 114.5h-4v-308q0 -40 41 -40h160q37 0 57 -16.5t20 -47.5t-20 -48t-57 -17h-490q-37 0 -57.5 17t-20.5 48zM430 506q0 -191 84 -299.5t238 -108.5q145 0 230 122.5t85 305.5q0 86 -15.5 157.5t-49 131 t-93.5 93.5t-141 34q-75 0 -134 -26t-96.5 -68t-62.5 -99.5t-35 -117.5t-10 -125z" />
<glyph unicode="&#xff;" horiz-adv-x="1239" d="M-8 -193q0 62 38 105t101 43q51 0 76.5 -25t25.5 -61q0 -72 -83 -86q30 -64 108 -64q121 0 201 80q35 35 51 75t16 101q0 79 -57 228l-246 622q-36 90 -90 90h-67q-33 0 -53.5 19t-20.5 47t20.5 47t53.5 19h407q33 0 53.5 -19t20.5 -47t-20.5 -47t-53.5 -19h-53 q-49 0 -49 -59q0 -40 26 -113l256 -665l291 760q6 18 6 30q0 47 -51 47h-57q-33 0 -53.5 19t-20.5 47t20.5 47t53.5 19h383q33 0 53 -19t20 -47t-20 -47t-53 -19h-64q-18 0 -36.5 -14.5t-28.5 -32.5l-289 -729q-28 -71 -46 -113t-50 -108t-60 -106t-70.5 -88t-86.5 -74.5 t-103 -45t-125 -18.5q-109 0 -191.5 61t-82.5 160zM324 1284q0 50 33.5 84.5t82.5 34.5q50 0 84.5 -34.5t34.5 -84.5q0 -49 -34.5 -83t-84.5 -34q-48 0 -82 34t-34 83zM698 1284q0 50 35 84.5t84 34.5q48 0 82.5 -35t34.5 -84t-34.5 -83t-82.5 -34q-50 0 -84.5 34t-34.5 83z " />
<glyph unicode="&#x152;" horiz-adv-x="2287" d="M86 700q0 120 21.5 227.5t69 203t118 164.5t175 109t232.5 40q302 0 467 -219v110q0 31 20.5 48.5t57.5 17.5h778q56 0 82.5 -20.5t26.5 -73.5v-367q0 -37 -17.5 -57.5t-48.5 -20.5t-48 20.5t-17 57.5v203q0 63 -25 87.5t-92 24.5h-524q-41 0 -41 -41v-360q0 -41 41 -41 h264q41 0 41 41v104q0 37 17.5 57.5t48.5 20.5t48 -20.5t17 -57.5v-462q0 -37 -17 -57.5t-48 -20.5t-48.5 20.5t-17.5 57.5v129q0 41 -41 41h-264q-41 0 -41 -41v-439q0 -41 41 -41h543q67 0 91.5 24.5t24.5 88.5v201q0 37 17.5 57.5t48.5 20.5t48 -20.5t17 -57.5v-365 q0 -53 -26 -73.5t-82 -20.5h-797q-37 0 -57.5 17.5t-20.5 48.5v114q-80 -107 -199 -164t-268 -57q-126 0 -229.5 42t-174 112.5t-119.5 166.5t-71 201.5t-22 218.5zM250 692q0 -84 12.5 -162t45 -156t82 -135t130 -92.5t182.5 -35.5q86 0 156 24.5t118.5 68t83.5 98.5 t55 122t29 132.5t9 135.5q0 95 -11.5 176t-42.5 161.5t-80 136.5t-130.5 91t-188.5 35q-450 0 -450 -600z" />
<glyph unicode="&#x153;" horiz-adv-x="1957" d="M76 518q0 90 20.5 173t62.5 154t101.5 123.5t141.5 82.5t178 30q147 0 257.5 -67.5t174.5 -184.5q22 46 53 82q138 170 356 170q91 0 169 -27.5t132 -73.5t92 -107.5t56 -128.5t18 -136v-43.5t-3.5 -28.5t-8 -20t-17 -9.5t-27 -6t-40.5 -0.5h-707v-21q0 -168 94.5 -273.5 t258.5 -105.5q102 0 179.5 52t98.5 124q21 74 76 74q74 0 74 -69q0 -41 -24.5 -94t-67.5 -99q-59 -65 -155 -97t-198 -32q-146 0 -251 62.5t-164 175.5q-65 -111 -174 -174.5t-252 -63.5q-118 0 -215 45t-159 122.5t-96 178t-34 213.5zM225 524q0 -79 22 -154t64 -137.5 t112 -100.5t157 -38q88 0 158 38t112 100.5t64 137.5t22 154q0 109 -38.5 202.5t-121.5 155.5t-196 62q-112 0 -194.5 -62t-121.5 -155.5t-39 -202.5zM1098 643h647q-8 129 -98 215t-224 86q-74 0 -131.5 -24.5t-94.5 -70t-60 -94.5t-39 -112z" />
<glyph unicode="&#x178;" horiz-adv-x="1527" d="M-31 1337q0 31 20.5 48.5t57.5 17.5h526q37 0 57.5 -17.5t20.5 -48.5t-20.5 -48t-57.5 -17h-77q-56 0 -56 -25q0 -12 13 -35l321 -538l332 538q12 18 12 35q0 25 -55 25h-88q-37 0 -57.5 17t-20.5 48t20.5 48.5t57.5 17.5h532q37 0 57.5 -17.5t20.5 -48.5t-20.5 -48 t-57.5 -17h-135q-37 0 -65.5 -25.5t-63.5 -85.5l-389 -643v-346q0 -41 41 -41h190q37 0 57.5 -17t20.5 -48t-20.5 -48.5t-57.5 -17.5h-614q-37 0 -57.5 17.5t-20.5 48.5t20.5 48t57.5 17h191q40 0 40 41v332l-411 678q-35 60 -55 75t-64 15h-125q-37 0 -57.5 17t-20.5 48z M479 1647q0 50 34 84t83 34q50 0 84.5 -34.5t34.5 -83.5t-34.5 -83t-84.5 -34q-48 0 -82.5 34t-34.5 83zM854 1647q0 49 34.5 83.5t84.5 34.5q48 0 82.5 -34.5t34.5 -83.5t-34.5 -83t-82.5 -34q-50 0 -84.5 34t-34.5 83z" />
<glyph unicode="&#x2c6;" horiz-adv-x="962" d="M123 1184q0 6 5.5 12.5t11 11t14 10t10.5 7.5l282 200q33 25 43 25t43 -25l283 -200q2 -2 10.5 -7.5t14 -10t11 -11t5.5 -12.5q0 -27 -31 -27q-29 0 -150.5 48.5t-185.5 78.5q-65 -31 -185.5 -79t-149.5 -48q-31 0 -31 27z" />
<glyph unicode="&#x2dc;" horiz-adv-x="856" d="M109 1202q0 50 38 111q53 78 164 78q60 0 199 -52q3 -1 22.5 -8.5t26.5 -9.5t22.5 -6.5t28 -6t25.5 -1.5q24 0 43 10.5t28.5 23t19.5 23t19 10.5q25 0 25 -28q0 -47 -31 -103q-56 -84 -164 -84q-51 0 -166 40t-163 40q-52 0 -82 -43q-2 -2 -4.5 -7t-4.5 -8t-5 -6 t-6.5 -4.5t-8.5 -1.5q-26 0 -26 33z" />
<glyph unicode="&#x2000;" horiz-adv-x="919" />
<glyph unicode="&#x2001;" horiz-adv-x="1839" />
<glyph unicode="&#x2002;" horiz-adv-x="919" />
<glyph unicode="&#x2003;" horiz-adv-x="1839" />
<glyph unicode="&#x2004;" horiz-adv-x="613" />
<glyph unicode="&#x2005;" horiz-adv-x="459" />
<glyph unicode="&#x2006;" horiz-adv-x="306" />
<glyph unicode="&#x2007;" horiz-adv-x="306" />
<glyph unicode="&#x2008;" horiz-adv-x="229" />
<glyph unicode="&#x2009;" horiz-adv-x="367" />
<glyph unicode="&#x200a;" horiz-adv-x="102" />
<glyph unicode="&#x2010;" horiz-adv-x="589" d="M55 553q0 32 23 55t59 23h352q36 0 59 -23t23 -55t-23 -55t-59 -23h-352q-36 0 -59 23t-23 55z" />
<glyph unicode="&#x2011;" horiz-adv-x="589" d="M55 553q0 32 23 55t59 23h352q36 0 59 -23t23 -55t-23 -55t-59 -23h-352q-36 0 -59 23t-23 55z" />
<glyph unicode="&#x2012;" horiz-adv-x="589" d="M55 553q0 32 23 55t59 23h352q36 0 59 -23t23 -55t-23 -55t-59 -23h-352q-36 0 -59 23t-23 55z" />
<glyph unicode="&#x2013;" horiz-adv-x="1015" d="M-82 553q0 32 22 55t60 23h1024q38 0 60 -23t22 -55t-22 -55t-60 -23h-1024q-38 0 -60 23t-22 55z" />
<glyph unicode="&#x2014;" horiz-adv-x="1892" d="M-172 553q0 32 22 55t60 23h2048q38 0 60 -23t22 -55t-22 -55t-60 -23h-2048q-38 0 -60 23t-22 55z" />
<glyph unicode="&#x2018;" horiz-adv-x="425" d="M82 1026q0 122 98 295q19 32 33.5 52.5t39 40.5t48.5 20q14 0 25.5 -13t11.5 -28q0 -13 -23 -47q-33 -42 -70.5 -115t-37.5 -111q0 -13 4 -21t13.5 -11.5t16.5 -4t21 -0.5h8q57 -2 91 -36t34 -91q0 -63 -42.5 -102t-106.5 -39q-53 0 -92 33t-55.5 79.5t-16.5 98.5z" />
<glyph unicode="&#x2019;" horiz-adv-x="425" d="M82 1294q0 63 42.5 101.5t106.5 38.5q79 0 121.5 -63.5t42.5 -145.5q0 -147 -98 -295q-1 -1 -7 -10.5t-8.5 -13.5t-9.5 -14.5t-11.5 -15.5t-12 -14.5t-13 -15t-13 -12.5t-14 -10.5t-14 -6t-14.5 -2.5q-17 0 -29 13t-12 30q0 12 23 47q33 43 70.5 115t37.5 110q0 10 -3 17 t-6 10.5t-11 5.5t-12.5 2.5t-15.5 1t-15 0.5q-57 2 -91 36t-34 91z" />
<glyph unicode="&#x201a;" horiz-adv-x="440" d="M82 82q0 63 42.5 101t106.5 38q79 0 121.5 -63.5t42.5 -145.5q0 -138 -98 -295q-2 -3 -11.5 -18t-14 -21.5t-14 -20.5t-17 -21t-18 -15.5t-21 -12t-21.5 -3.5q-17 0 -29 12t-12 29q0 12 23 47q33 43 70.5 115t37.5 110q0 13 -4 21t-13.5 11.5t-16.5 4t-21 0.5h-8 q-57 2 -91 36t-34 91z" />
<glyph unicode="&#x201c;" horiz-adv-x="970" d="M147 1026q0 146 99 295q1 1 16.5 24t23 32t23 26t30 24t28.5 7t25 -13.5t11 -27.5q0 -20 -22 -47q-33 -43 -71 -115.5t-38 -110.5q0 -17 9 -26t18.5 -10t28.5 -1h8q58 -3 91.5 -37t33.5 -92q0 -63 -42.5 -101t-105.5 -38q-80 0 -123 63.5t-43 147.5zM535 1024 q0 150 96 295q3 4 14 21t16 23.5t15.5 20.5t17.5 20.5t17 14.5t20 11.5t21 3.5q15 0 27 -14t12 -29q0 -18 -25 -48q-33 -43 -71 -115t-38 -110q0 -10 3 -17t7 -10.5t12 -5.5t13 -2.5t16 -1t15 -0.5q56 -2 90.5 -36.5t34.5 -90.5q0 -63 -43.5 -101t-106.5 -38 q-79 0 -121 63.5t-42 145.5z" />
<glyph unicode="&#x201d;" horiz-adv-x="970" d="M147 1294q0 63 43.5 101.5t106.5 38.5q53 0 92 -33t55.5 -79.5t16.5 -98.5q0 -146 -99 -295q-3 -4 -15.5 -23t-18 -27t-18 -23t-21.5 -21.5t-21 -12.5t-24 -6q-15 0 -27 13.5t-12 27.5q0 23 24 47q33 43 71 115t38 110q0 17 -9.5 26t-19 10t-28.5 1h-9q-57 3 -91 37 t-34 92zM532 1294q0 63 43.5 101.5t106.5 38.5q53 0 92 -33t55.5 -79.5t16.5 -98.5q0 -155 -98 -295q-1 -2 -17.5 -26.5t-23.5 -32.5t-22 -24.5t-28.5 -23t-27.5 -6.5q-15 0 -27 13.5t-12 27.5q0 23 24 47q33 43 71 115t38 110q0 17 -9.5 26t-19 10t-28.5 1h-9q-57 3 -91 37 t-34 92z" />
<glyph unicode="&#x201e;" horiz-adv-x="970" d="M147 82q0 63 42.5 101t107.5 38q79 0 121.5 -63.5t42.5 -145.5q0 -137 -99 -295q-1 -2 -13 -21t-17 -26t-17 -23t-21 -22.5t-22 -13t-26 -6.5q-17 0 -29 12t-12 29q0 14 22 47q33 43 71 115t38 110q0 13 -4 21t-13.5 11.5t-16.5 4t-21 0.5h-9q-57 2 -91 36t-34 91z M535 82q0 63 42.5 101t106.5 38q79 0 121.5 -63.5t42.5 -145.5q0 -138 -98 -295q-2 -3 -11.5 -18t-14 -21.5t-14 -20.5t-17 -21t-18 -15.5t-21 -12t-21.5 -3.5q-17 0 -29 12t-12 29q0 14 22 47q33 43 71 115t38 110q0 13 -4 21t-13.5 11.5t-16.5 4t-21 0.5h-9 q-57 2 -90.5 36t-33.5 91z" />
<glyph unicode="&#x2022;" horiz-adv-x="1099" d="M215 692q0 149 103.5 253t252.5 104q147 0 250 -104t103 -253q0 -146 -103.5 -249t-249.5 -103q-149 0 -252.5 102.5t-103.5 249.5z" />
<glyph unicode="&#x2026;" horiz-adv-x="2359" d="M360 109q0 54 39.5 92.5t94.5 38.5q54 0 92.5 -38.5t38.5 -92.5q0 -55 -38.5 -94.5t-92.5 -39.5q-56 0 -95 39.5t-39 94.5zM1042 109q0 54 39 92.5t93 38.5q55 0 94 -38.5t39 -92.5q0 -56 -39 -95t-94 -39q-54 0 -93 39.5t-39 94.5zM1724 109q0 54 39.5 92.5t94.5 38.5 q54 0 92.5 -38.5t38.5 -92.5q0 -55 -38.5 -94.5t-92.5 -39.5q-56 0 -95 39.5t-39 94.5z" />
<glyph unicode="&#x202f;" horiz-adv-x="367" />
<glyph unicode="&#x2039;" horiz-adv-x="331" d="M33 555q0 4 4 12t9.5 16.5t6.5 10.5l185 293q1 2 4.5 8t5.5 9.5t6 9t7.5 8.5t9 5.5t10.5 2.5q14 0 24 -9t10 -22q0 -9 -3 -17.5t-9 -20t-8 -17.5l-98 -289l104 -305l7.5 -22.5t6.5 -28.5q0 -13 -9 -21t-21 -8q-7 0 -13 2.5t-11 8t-7.5 9t-7.5 11.5t-6 10l-189 307 q-1 2 -6 10t-8.5 15.5t-3.5 11.5z" />
<glyph unicode="&#x203a;" horiz-adv-x="337" d="M74 199q0 14 14 51l105 305l-101 289q-1 4 -9.5 23.5t-8.5 31.5q0 13 10.5 22t24.5 9q19 0 41 -39q0 -1 11 -19q62 -98 175 -278q1 -2 6.5 -10.5t9.5 -16.5t4 -12t-3.5 -11.5t-8.5 -15.5t-6 -10l-188 -307q-1 -1 -5 -8t-5 -9t-5 -7.5t-6.5 -7t-7 -4.5t-9 -4t-10.5 -1 q-12 0 -20 8.5t-8 20.5z" />
<glyph unicode="&#x205f;" horiz-adv-x="459" />
<glyph unicode="&#x20ac;" horiz-adv-x="1357" d="M-111 551q0 32 23 55t59 23h131v53q0 51 2 78h-133q-36 0 -59 23t-23 55t23 54.5t59 22.5h154q37 175 119 289q74 106 202 173t283 67q158 0 260 -47q120 -55 190 -159t70 -232q0 -67 -32 -109.5t-89 -42.5q-44 0 -73 28t-29 72q0 30 15.5 59t48.5 38q-11 44 -37 85 t-68.5 78t-110.5 59.5t-151 22.5q-89 0 -163.5 -29.5t-126.5 -83t-87 -120.5t-55 -148h454q36 0 59 -22.5t23 -54.5t-23 -55t-59 -23h-477q-2 -18 -2 -55q0 -51 2 -76h477q36 0 59 -23t23 -55t-23 -55t-59 -23h-456q82 -358 436 -358q99 0 171.5 24t113 66t60.5 90t24 106 q3 44 19.5 67.5t55.5 23.5q82 0 82 -101q0 -70 -38 -159.5t-117 -155.5q-137 -117 -383 -117q-253 0 -400.5 139.5t-191.5 374.5h-150q-36 0 -59 23t-23 55z" />
<glyph unicode="&#x2122;" horiz-adv-x="1935" d="M104 1122v219q0 30 16.5 46t43.5 16h614q27 0 44.5 -16t17.5 -46v-219q0 -29 -15.5 -45t-42.5 -16q-28 0 -44.5 16t-16.5 45v115q0 28 -9 38.5t-36 10.5h-139v-616h100q63 0 63 -54q0 -53 -65 -53h-328q-63 0 -63 53q0 25 17 39.5t46 14.5h101v616h-140 q-28 0 -38.5 -10.5t-10.5 -38.5v-115q0 -61 -57 -61q-27 0 -42.5 16t-15.5 45zM899 616q0 25 17.5 39.5t46.5 14.5h79v626h-69q-29 0 -46.5 14.5t-17.5 39.5q0 53 64 53h201q69 0 98 -105l172 -583l172 577q6 21 12 36t17.5 34.5t30 30t42.5 10.5h205q66 0 66 -53 q0 -25 -17.5 -39.5t-48.5 -14.5h-78v-626h78q31 0 48.5 -14.5t17.5 -39.5q0 -53 -66 -53h-252q-63 0 -63 53q0 25 17 39.5t46 14.5h45v542l-186 -594q-14 -43 -35.5 -57t-50.5 -14q-23 0 -47.5 17t-36.5 54q-16 46 -191 601v-549h45q66 0 66 -54q0 -53 -66 -53h-251 q-64 0 -64 53z" />
<glyph unicode="&#x25fc;" horiz-adv-x="1044" d="M0 0v1044h1044v-1044h-1044z" />
</font>
</defs>
</svg>
